<?xml version="1.0" encoding="UTF-8" standalone="no"?>
<!DOCTYPE svg PUBLIC "-//W3C//DTD SVG 1.1//EN" "http://www.w3.org/Graphics/SVG/1.1/DTD/svg11.dtd">
<svg width="880" height="1250" version="1.1" xmlns="http://www.w3.org/2000/svg">
	<title>Clubelek Hackerspace Passport - Front cover</title>

	<g id='background'>
		<!-- Copy-pasted from Inkscape -->
		<polygon id='bg1' fill='#fcd03d' points='440,0 880,0 880,243.488 440,625'/>
		<polygon id='bg2' fill='#ffac78' points='440,625 880,243.488 880,1006.0512'/>
		<polygon id='bg3' fill='#ef4178' points='440,1250 440,625 880,1006.0512 880,1250'/>
		<polygon id='bg4' fill='#d150ac' points='440,1250 440,625 0,1006.0512 0,1250'/>
		<polygon id='bg5' fill='#1baec2' points='440,625 0,243.488 0,1006.0512'/>
		<polygon id='bg6' fill='#c6e1d3' points='440,0 0,0 0,243.488 440,625'/>
	</g>
	
	<path id="clk-emblem" fill='#ffffff' transform='translate(232.44067,427)' d="m 207.55933,0 c -11.55,6.67 -23.23937,13.139375 -34.60937,20.109375 0.11,26 -6.3e-4,52.010307 0.0594,78.020307 0.54,1.64 -1.05937,2.299998 -2.10937,2.999998 -10.75,6.31 -21.69938,12.26907 -32.30938,18.78907 -11.74,-6.42 -23.17125,-13.37938 -34.83125,-19.959378 -11.670002,6.589998 -23.289372,13.289688 -34.809372,20.129688 0.08,13.21 0.08,26.42062 0,39.64062 11.37,6.93 23.17062,13.21907 34.490622,20.18907 0.1,13.31 0.11,26.63062 0,39.94062 -22.760002,13.67 -46.090312,26.56 -68.970312,40.1 0.06,26.63 0.01,53.26062 0.0297,79.89062 C 22.99,346.44999 11.59,353.22875 0,359.66875 v 80.48124 c 11.59,6.43 22.98,13.22938 34.499998,19.80938 -0.01,-26.69 0.0197,-53.38969 -0.0203,-80.07969 11.46,6.79 23.07093,13.31907 34.56093,20.03907 -0.12,13.36 0.0197,26.73062 -0.0703,40.09062 10.66,-6.19 21.29969,-12.42062 32.029692,-18.49062 0.93,-0.71 2.81062,-1.00969 2.49062,-2.57969 0.04,-13.07 -0.0113,-26.15031 0.0187,-39.22031 -11.510002,-6.56 -23.059682,-13.08969 -34.379682,-19.92969 -0.32,-13.25 -0.01,-26.52031 -0.15,-39.77031 23.1,-13.39 46.170622,-26.84938 69.390622,-40.00938 23.12,13.21 46.19,26.54 69.2,39.95 23.12,-13.39 46.25906,-26.73031 69.38906,-40.07031 22.96,13.47 46.18063,26.51031 69.09063,40.07031 -0.09,13.3 -0.09,26.60062 0,39.89062 -11.39,6.92 -23.08,13.32938 -34.55,20.10938 v 39.9 c 11.51,6.71 23.07937,13.33 34.60937,20 -0.26,-13.27 -0.0188,-26.55969 -0.11875,-39.82969 11.67,-6.74 23.32969,-13.51062 35.02969,-20.19062 -0.13,26.67 0.14031,53.35031 -0.12969,80.02031 11.53,-6.67 23.09938,-13.29 34.60938,-20 v -79.9 c -11.47,-6.77 -23.14063,-13.19969 -34.54063,-20.07969 0.12,-26.6 -0.0288,-53.21093 0.0813,-79.81093 -23.15,-13.47 -46.39062,-26.75876 -69.54062,-40.21876 v -39.89062 c 11.16,-6.56 22.46937,-12.87969 33.60937,-19.47969 1.36,-0.64 0.74032,-2.36031 0.92032,-3.52031 -0.07,-11.98 0.0103,-23.96062 -0.0297,-35.94062 0.19,-1.65 -1.79031,-2.09907 -2.82031,-2.88907 -10.65,-5.94 -21.05,-12.37969 -31.8,-18.129688 -11.47,6.669998 -23.01,13.229068 -34.45,19.939068 -11.42,-6.75 -23.11032,-13.08907 -34.37032,-20.039068 -0.15,-26.64 -0.0194,-53.300617 -0.0594,-79.940617 C 230.76998,13.469375 219.30935,6.45 207.55935,0 Z m 23.08125,159.87968 c 7.65,13.33 15.62,26.51 22.95,40 -7.27,13.53 -15.32062,26.69 -22.94062,40.05 -15.36,-0.05 -30.73,-0.0103 -46.1,-0.0203 -7.76,-13.3 -15.37969,-26.69938 -23.12969,-40.00938 7.77,-13.3 15.35906,-26.69062 23.13906,-39.99062 15.36,-0.02 30.72125,0.0403 46.08125,-0.0297 z m -23.05469,20.02031 c -3.88124,-0.007 -7.76093,-3.1e-4 -11.63593,0.0797 -3.61,6.7 -7.63938,13.17938 -11.35938,19.80938 3.5,6.81 7.78907,13.23062 11.33907,20.04062 7.76,0.18 15.53,0.0297 23.3,0.0797 3.67,-6.73 7.8,-13.21 11.35,-20 -3.56,-6.79 -7.68,-13.27 -11.35,-20 -3.88,0.02 -7.76251,-0.002 -11.64376,-0.009 z"/>

	<g id='clk-text' fill='#ffffff' transform='translate(60.121725,275) scale(0.35,-0.35)'>
		<!-- This is all copy-pasted coordinates from Inkscape, hence the scaling -->
		<polygon id='txlt1' points='122.613,186.640 153.720,186.707 168.800,160.000 153.720,133.373 122.600,133.453 107.600,160.040'/>
		<polygon id='txlt2' points='276.6,240.04 138.293,319.973 0,240.373 0,79.707 138.373,0 276.6,80.04 229.333,106 138.373,53.453 45.973,106.773 45.973,213.307 138.373,266.627 230.987,213.533'/>
		<polygon id='txlt3' points='323.347,373.107 369.400,346.427 369.387,26.933 323.347,0'/>
		<polygon id='txlt4' points='461.280,293.493 508.053,266.480 507.933,106.787 600.08,53.333 692.653,106.8 692.64,266.64 738.707,293.533 738.733,80.307 600.027,0 461.28,80.253'/>
		<polygon id='txlt5' points='954.053,186.707 984.947,186.733 1000.387,160.04 984.933,133.333 954.053,133.373 939.987,158.08'/>
		<path id='txlt6' fill-rule='evenodd' d='M831.347,399.773 L877.4,373.133 L877.200,266.813 L969.654,319.973 L1108,238.507 L1108,81.56 L969.68,0 L831.907,79.533 Z M969.640,266.627 L1062,213.293 L1062,106.787 L969.653,53.453 L877.267,106.76 L877.267,213.32 Z'/>
		<polygon id='txlt7' points='1339.307,320.107 1477.907,240.040 1339.213,160.160 1292.787,186.707 1385.067,240.027 1339.293,266.760 1246.627,213.187 1246.627,106.893 1339.293,53.320 1477.987,133.427 1478,80.107 1339.173,0 1200.627,80.107 1200.627,239.973'/>
		<polygon id='txlt8' points='1523.827,373.28 1570,346.613 1570,26.8 1523.840,0'/>
		<polygon id='txlt9' points='1801.027,319.973 1939.093,240.040 1801.040,160.107 1754.947,186.707 1847.187,240.040 1801.040,266.627 1708.667,213.280 1708.667,106.813 1801.013,53.453 1939.360,133.453 1939.373,80.133 1801.027,0 1663.093,79.867 1663.147,240.253'/>
		<polygon id='txlt10' points='1986.013,373.093 2032.067,346.453 2031.867,186.813 2124.413,239.773 2170.413,213.373 2078.107,160.040 2170.733,106.440 2170.720,53.253 2031.867,133.267 2032.067,26.960 1986.013,0'/>
	</g>
	
	<text id='passeport-text' x='440' y='1000' text-anchor='middle' fill='#ffffff' font-size='50' font-family='DejaVu Serif' font-weight='bold'>PASSEPORT</text>
	<text id='hacker-text' x='440' y='1065' text-anchor='middle' fill='#ffffff' font-size='50' font-family='DejaVu Serif' font-weight='bold'>HACKERSPACE</text>
	
	<g id='passport-logo' transform='translate(365,1100)' fill='#ffffff'>
		<path id='pplg1' d='M0,0 L150,0 L150,40 L104.5804,40 A30 30 0 0 0 45.4196,40 L0,40 Z'/>
		<path id='pplg2' d='M0,90 L150,90 L150,50 L104.5804,50 A30 30 0 0 1 45.4196,50 L0,50 Z'/>
		<circle id='pplg3' cx='75' cy='45' r='20'/>
	</g>
	
</svg>