<?xml version="1.0" encoding="UTF-8" standalone="no"?>
<svg
   xmlns:dc="http://purl.org/dc/elements/1.1/"
   xmlns:cc="http://creativecommons.org/ns#"
   xmlns:rdf="http://www.w3.org/1999/02/22-rdf-syntax-ns#"
   xmlns:svg="http://www.w3.org/2000/svg"
   xmlns="http://www.w3.org/2000/svg"
   xmlns:sodipodi="http://sodipodi.sourceforge.net/DTD/sodipodi-0.dtd"
   xmlns:inkscape="http://www.inkscape.org/namespaces/inkscape"
   width="880"
   height="1250"
   viewBox="0 0 880 1250"
   version="1.1"
   id="svg2"
   sodipodi:docname="p_0.svg"
   inkscape:version="0.92.3 (2405546, 2018-03-11)">
  <metadata
     id="metadata8">
    <rdf:RDF>
      <cc:Work
         rdf:about="">
        <dc:format>image/svg+xml</dc:format>
        <dc:type
           rdf:resource="http://purl.org/dc/dcmitype/StillImage" />
      </cc:Work>
    </rdf:RDF>
  </metadata>
  <defs
     id="defs6" />
  <sodipodi:namedview
     pagecolor="#ffffff"
     bordercolor="#666666"
     borderopacity="1"
     objecttolerance="10"
     gridtolerance="10"
     guidetolerance="10"
     inkscape:pageopacity="0"
     inkscape:pageshadow="2"
     inkscape:window-width="1920"
     inkscape:window-height="1017"
     id="namedview4"
     showgrid="false"
     inkscape:zoom="0.53400704"
     inkscape:cx="-44.184424"
     inkscape:cy="704.66446"
     inkscape:window-x="1592"
     inkscape:window-y="-8"
     inkscape:window-maximized="1"
     inkscape:current-layer="svg2" />
  <g
     id="g224"
     transform="matrix(0.40000002,0,0,0.40000002,114.38136,96)">
    <path
       style="fill:#1dafc3"
       inkscape:connector-curvature="0"
       id="path4"
       d="m 623.53305,0 c 11.6,6.54 23.22,13.11 34.57,20.05 -0.17,26.42 -0.01,52.84 -0.08,79.25 0.04,13.31 -0.04,26.62 0.05,39.94 -0.09,26.89 -0.02,53.78 -0.03,80.67 -0.01,13.32 -0.03,26.64 0.01,39.95 -11.51,-6.67 -23.02,-13.36 -34.57,-19.97 0.11,-79.96 0,-159.93 0.05,-239.89 z" />
    <path
       style="fill:#1dafc3"
       inkscape:connector-curvature="0"
       id="path6"
       d="m 242.53305,20.01 c 11.59,6.53 23.14,13.15 34.55,19.98 -0.07,79.84 -0.11,159.68 0.01,239.52 -11.38,6.89 -22.97,13.47 -34.56,20.02 -0.01,-93.17 -0.02,-186.35 0,-279.52 z" />
    <path
       style="fill:#1dafc3"
       inkscape:connector-curvature="0"
       id="path8"
       d="m 1142.9031,19.85 c 11.61,6.54 23.18,13.17 34.62,20 0,79.95 0,159.89 0,239.83 -11.44,6.83 -23.01,13.47 -34.62,20.01 0.26,-53.98 0.04,-107.96 0.11,-161.95 -0.07,-39.29 0.15,-78.6 -0.11,-117.89 z" />
    <path
       style="fill:#1dafc3"
       inkscape:connector-curvature="0"
       id="path10"
       d="m 1489.5331,20 c 11.6,6.52 23.18,13.12 34.56,20.02 -0.15,39.78 -0.01,79.56 -0.07,119.33 0.03,13.37 -0.02,26.74 0.03,40.11 0,0.13 0.01,0.38 0.01,0.51 -0.03,26.51 -0.1,53.03 0.03,79.54 -11.37,6.91 -22.96,13.5 -34.56,20.03 -0.02,-93.18 -0.02,-186.36 0,-279.54 z" />
    <path
       style="fill:#fcd03e"
       inkscape:connector-curvature="0"
       id="path12"
       d="m 100.95305,61.35 c 1.18,-0.47 2.54,-1.93 3.84,-0.98 34.17,19.86 68.55,39.38 102.61,59.4 -11.23,6.86 -22.8,13.16 -34.11,19.87 -1.88,-0.34 -3.4,-1.8 -5.1,-2.64 -21.48,-12.42 -42.98,-24.79 -64.46,-37.22 C 92.203054,93.16 80.693054,86.5 69.193054,79.82 c 10.5,-6.31 21.19,-12.29 31.759996,-18.47 z" />
    <path
       style="fill:#fcd03e"
       inkscape:connector-curvature="0"
       id="path14"
       d="m 692.66305,79.78 c 11.54,-6.69 23.01,-13.5 34.7,-19.94 23.08,13.3 46.14,26.64 69.21,39.96 -0.23,13.21 0.52,26.48 -0.39,39.66 -23.13,-13.07 -46.04,-26.55 -69.09,-39.77 -11.48,-6.64 -23,-13.21 -34.43,-19.91 z" />
    <path
       style="fill:#fcd03e"
       inkscape:connector-curvature="0"
       id="path16"
       d="m 969.70305,79.78 c 11.61,-6.66 23.14,-13.47 34.80005,-20.04 22.85,13.55 46.11,26.44 68.92,40.06 -11.34,6.95 -23,13.36 -34.51,20.04 -11.49,-6.93 -23.23,-13.42 -34.8,-20.21 -11.50005,-6.56 -22.92005,-13.27 -34.41005,-19.85 z" />
    <path
       style="fill:#fcd03e"
       inkscape:connector-curvature="0"
       id="path18"
       d="m 1316.2131,79.79 c 11.42,-6.75 22.95,-13.32 34.45,-19.94 23.19,13.08 46.18,26.54 69.23,39.88 -11.43,6.92 -23,13.66 -34.75,20.01 -11.37,-6.85 -22.97,-13.29 -34.43,-19.98 -11.5,-6.66 -23.04,-13.25 -34.5,-19.97 z" />
    <path
       style="fill:#c1e0d6"
       inkscape:connector-curvature="0"
       id="path20"
       d="M 0.08305423,119.66 C 23.103054,106.35 46.053054,92.91 69.193054,79.82 c 11.5,6.68 23.01,13.34 34.539996,19.96 -23.079996,13.3 -46.139996,26.63 -69.219996,39.94 -11.5,6.51 -22.78,13.42 -34.40999977,19.67 -0.06,-13.25 -0.07,-26.49 -0.02,-39.73 z" />
    <path
       style="fill:#1dafc3"
       inkscape:connector-curvature="0"
       id="path22"
       d="m 345.97305,79.73 c 11.77,6.64 23.49,13.37 35.12,20.27 -0.13,39.98 -0.03,79.95 -0.05,119.92 -0.01,13.31 -0.03,26.62 0.01,39.93 -10.11,-5.74 -20.15,-11.61 -30.23,-17.4 -1.61,-0.99 -3.52,-1.65 -4.78,-3.09 -0.1,-53.21 0.05,-106.42 -0.07,-159.63 z" />
    <path
       style="fill:#feb07c"
       inkscape:connector-curvature="0"
       id="path24"
       d="m 519.49305,99.84 c 11.38,-6.94 23.08,-13.37 34.6,-20.1 -0.1,39.96 0,79.93 -0.05,119.89 -11.4,6.86 -23.06,13.3 -34.52,20.06 -0.01,-39.95 0.04,-79.9 -0.03,-119.85 z" />
    <path
       style="fill:#c1e0d6"
       inkscape:connector-curvature="0"
       id="path26"
       d="m 658.02305,99.3 c 11.88,-5.86 23.01,-13.16 34.64,-19.52 11.43,6.7 22.95,13.27 34.43,19.91 -16.18,9.76 -32.72,18.91 -49.01,28.48 -6.7,3.65 -13.01,8.01 -20.01,11.07 -0.09,-13.32 -0.01,-26.63 -0.05,-39.94 z" />
    <path
       style="fill:#c1e0d6"
       inkscape:connector-curvature="0"
       id="path28"
       d="m 910.01305,114.24 c 19.9,-11.48 39.79,-22.98 59.69,-34.46 11.49,6.58 22.91,13.29 34.41005,19.85 -22.74005,13.82 -46.08005,26.67 -69.02005,40.18 -11.56,6.57 -23.05,13.25 -34.55,19.91 0.1,-13.27 -0.2,-26.55 0.13,-39.81 2.74,-2.41 6.32,-3.63 9.34,-5.67 z" />
    <path
       style="fill:#c1e0d6"
       inkscape:connector-curvature="0"
       id="path30"
       d="m 1249.8331,117.98 c 22.19,-12.61 44.18,-25.6 66.38,-38.19 11.46,6.72 23,13.31 34.5,19.97 -23.02,13.42 -46.15,26.63 -69.19,39.99 -11.37,6.48 -22.62,13.16 -34.04,19.55 -0.79,-3.8 -0.34,-7.7 -0.42,-11.54 0.06,-9 -0.16,-18.01 0.07,-27.01 -0.19,-1.56 1.74,-1.96 2.7,-2.77 z" />
    <path
       style="fill:#feb07c"
       inkscape:connector-curvature="0"
       id="path34"
       d="m 796.57305,99.8 c 11.23,6.42 22.44,12.91 33.63,19.42 1.3,0.63 0.69,2.34 0.88,3.46 -0.07,25.7 -0.01,51.39 -0.03,77.09 -11.5,6.68 -23.01,13.33 -34.53,19.97 0,-13.33 0,-26.65 0,-39.98 -0.21,-13.43 0.43,-26.89 -0.34,-40.3 0.91,-13.18 0.16,-26.45 0.39,-39.66 z" />
    <path
       style="fill:#feb07c"
       inkscape:connector-curvature="0"
       id="path36"
       d="m 1073.4231,99.8 c 11.7,6.39 23.22,13.24 34.76,19.96 -34.49,20.17 -69.22,39.92 -103.73,60.05 -11.59005,-6.6 -23.13005,-13.29 -34.64005,-20.03 22.95,-13.45 46.05005,-26.66 69.10005,-39.94 11.51,-6.68 23.17,-13.09 34.51,-20.04 z" />
    <path
       style="fill:#feb07c"
       inkscape:connector-curvature="0"
       id="path38"
       d="m 1419.8931,99.73 c 11.5,6.66 23.2,13.05 34.49,20.06 -33.56,19.82 -67.53,38.99 -101.18,58.66 -1.21,0.67 -2.64,1.67 -3.87,0.51 -10.99,-6.4 -22.12,-12.58 -32.98,-19.18 22.75,-13.63 46.02,-26.42 68.79,-40.04 11.75,-6.35 23.32,-13.09 34.75,-20.01 z" />
    <path
       style="fill:#c1e0d6"
       inkscape:connector-curvature="0"
       id="path40"
       d="m 1581.9831,126.29 c 3.83,-2.04 7.34,-4.86 11.49,-6.2 11.38,6.1 22.44,12.9 33.69,19.27 0,0.2 0.01,0.62 0.01,0.82 -22.82,13.2 -45.66,26.36 -68.47,39.56 -11.61,6.48 -22.9,13.53 -34.65,19.72 -0.05,-13.37 0,-26.74 -0.03,-40.11 6.96,-3.17 13.29,-7.53 20.01,-11.17 12.65,-7.3 25.28,-14.63 37.95,-21.89 z" />
    <path
       style="fill:#1dafc3"
       inkscape:connector-curvature="0"
       id="path42"
       d="M 0.10305423,159.39 C 11.733054,153.14 23.013054,146.23 34.513054,139.72 c 0.02,26.68 0.01,53.36 0.01,80.03 -0.01,13.35 0.02,26.69 -0.02,40.04 -11.53,-6.54 -22.9,-13.34 -34.47999977,-19.79 0.04,-26.87 -0.12,-53.74 0.08,-80.61 z" />
    <path
       style="fill:#1dafc3"
       inkscape:connector-curvature="0"
       id="path44"
       d="m 900.54305,159.72 c 11.5,-6.66 22.99,-13.34 34.55,-19.91 -0.14,26.66 -0.03,53.33 -0.05,80 0.02,13.31 -0.09,26.62 0.05,39.93 -11.55,-6.65 -23.18,-13.19 -34.6,-20.05 0.08,-26.66 -0.01,-53.31 0.05,-79.97 z" />
    <path
       style="fill:#1dafc3"
       inkscape:connector-curvature="0"
       id="path46"
       d="m 1247.4831,159.3 c 11.42,-6.39 22.67,-13.07 34.04,-19.55 0,26.65 -0.01,53.3 0,79.95 -0.01,13.35 0,26.71 0,40.06 -10.43,-5.89 -20.73,-12 -31.15,-17.9 -1.21,-0.9 -3.45,-1.38 -3.37,-3.21 0.05,-26.37 -0.05,-52.74 0.05,-79.12 z" />
    <path
       style="fill:#c1e0d6"
       inkscape:connector-curvature="0"
       id="path48"
       d="m 91.913054,160 c 3.85,-0.37 7.72,-0.25 11.589996,-0.22 -0.03,6.57 0.08,13.14 -0.09,19.7 -5.719996,-3.15 -11.399996,-6.38 -16.969996,-9.79 1.88,-3.2 3.78,-6.39 5.47,-9.69 z" />
    <path
       style="fill:#fcd03e"
       inkscape:connector-curvature="0"
       id="path50"
       d="m 103.50305,159.78 c 3.93,-0.02 7.86,0 11.8,-0.03 1.91,3.34 3.84,6.66 5.7,10.02 -5.61,3.5 -11.46,6.59 -17.08,10.06 l -0.51,0.02 v -0.37 c 0.17,-6.56 0.06,-13.13 0.09,-19.7 z" />
    <path
       style="fill:#c1e0d6"
       inkscape:connector-curvature="0"
       id="path52"
       d="m 715.59305,159.84 c 3.79,-0.1 7.58,-0.06 11.37,-0.03 0.05,6.55 0.07,13.11 -0.02,19.66 -5.77,-3.03 -11.27,-6.53 -16.98,-9.65 1.86,-3.34 3.77,-6.65 5.63,-9.98 z" />
    <path
       style="fill:#fcd03e"
       inkscape:connector-curvature="0"
       id="path54"
       d="m 726.96305,159.81 c 3.9,-0.08 7.8,0 11.71,-0.09 2.01,3.08 3.73,6.33 5.48,9.57 -4.77,4.54 -11.25,6.7 -16.56,10.54 -0.16,-0.02 -0.49,-0.06 -0.65,-0.08 v -0.28 c 0.09,-6.55 0.07,-13.11 0.02,-19.66 z" />
    <path
       style="fill:#feb07c"
       inkscape:connector-curvature="0"
       id="path56"
       d="m 744.15305,169.29 0.26,-0.27 c 1.68,3.73 3.98,7.14 5.9,10.76 -1.92,3.35 -3.76,6.74 -5.78,10.03 -5.58,-3.43 -11.35,-6.56 -16.94,-9.98 5.31,-3.84 11.79,-6 16.56,-10.54 z" />
    <path
       style="fill:#1dafc3"
       inkscape:connector-curvature="0"
       id="path58"
       d="m 80.723054,179.78 c 1.84,-3.4 3.74,-6.77 5.72,-10.09 5.57,3.41 11.25,6.64 16.969996,9.79 v 0.37 0.27 c -5.769996,3.05 -11.399996,6.36 -16.979996,9.73 -1.95,-3.34 -3.87,-6.68 -5.71,-10.07 z" />
    <path
       style="fill:#feb07c"
       inkscape:connector-curvature="0"
       id="path60"
       d="m 121.00305,169.77 c 1.87,3.34 4.13,6.48 5.67,9.99 -1.53,3.54 -3.82,6.68 -5.68,10.04 -5.6,-3.47 -11.4,-6.61 -17.07,-9.97 5.62,-3.47 11.47,-6.56 17.08,-10.06 z" />
    <path
       style="fill:#1dafc3"
       inkscape:connector-curvature="0"
       id="path62"
       d="m 704.39305,179.75 c 1.51,-3.48 3.6,-6.69 5.57,-9.93 5.71,3.12 11.21,6.62 16.98,9.65 v 0.28 l -0.01,0.34 c -5.78,3 -11.27,6.53 -17,9.63 -1.91,-3.28 -4.09,-6.46 -5.54,-9.97 z" />
    <path
       style="fill:#ef4278"
       inkscape:connector-curvature="0"
       id="path64"
       d="m 103.41305,179.85 0.51,-0.02 c 5.67,3.36 11.47,6.5 17.07,9.97 -1.87,3.35 -3.8,6.66 -5.69,9.99 -3.94,-0.03 -7.88,-0.02 -11.81,-0.02 0.02,-6.55 0.01,-13.1 -0.08,-19.65 z" />
    <path
       style="fill:#ef4278"
       inkscape:connector-curvature="0"
       id="path66"
       d="m 726.94305,179.75 c 0.16,0.02 0.49,0.06 0.65,0.08 5.59,3.42 11.36,6.55 16.94,9.98 -1.99,3.31 -3.75,6.76 -5.85,10 -3.94,-0.07 -7.89,-0.02 -11.83,-0.05 0.19,-6.56 0.04,-13.12 0.08,-19.67 z" />
    <path
       style="fill:#d252ad"
       inkscape:connector-curvature="0"
       id="path68"
       d="m 1524.0531,199.46 c 11.75,-6.19 23.04,-13.24 34.65,-19.72 23.05,13.55 46.37,26.64 69.39,40.25 -0.1,13.27 -0.06,26.55 -0.02,39.83 -34.75,-19.81 -69.22,-40.11 -104.01,-59.85 0,-0.13 -0.01,-0.38 -0.01,-0.51 z" />
    <path
       style="fill:#d252ad"
       inkscape:connector-curvature="0"
       id="path70"
       d="m 86.433054,189.85 c 5.58,-3.37 11.21,-6.68 16.979996,-9.73 0.09,6.55 0.1,13.1 0.08,19.65 -3.879996,-0.03 -7.759996,0.13 -11.629996,-0.15 -1.53,-3.41 -3.59,-6.53 -5.43,-9.77 z" />
    <path
       style="fill:#d252ad"
       inkscape:connector-curvature="0"
       id="path72"
       d="m 709.93305,189.72 c 5.73,-3.1 11.22,-6.63 17,-9.63 -0.04,6.55 0.11,13.11 -0.08,19.67 -3.76,0.01 -7.53,0.02 -11.29,0 -1.77,-3.4 -3.8,-6.67 -5.63,-10.04 z" />
    <path
       style="fill:#ef4278"
       inkscape:connector-curvature="0"
       id="path74"
       d="m 519.52305,219.69 c 11.46,-6.76 23.12,-13.2 34.52,-20.06 0.01,13.29 -0.08,26.58 0.05,39.88 -22.99,13.8 -46.4,26.93 -69.61,40.38 -11.2,-7.05 -22.93,-13.22 -34.26,-20.07 22.99,-13.56 46.23,-26.7 69.3,-40.13 z" />
    <path
       style="fill:#ef4278"
       inkscape:connector-curvature="0"
       id="path76"
       d="m 796.52305,219.74 c 11.52,-6.64 23.03,-13.29 34.53,-19.97 -0.03,12.33 -0.05,24.67 0.01,37.01 -0.17,1.17 0.43,2.82 -0.87,3.54 -22.81,13.23 -45.69,26.36 -68.51,39.58 l -0.16,-0.1 c -11.28,-6.94 -22.92,-13.25 -34.28,-20.07 23.12,-13.29 46.2,-26.63 69.28,-39.99 z" />
    <path
       style="fill:#ef4278"
       inkscape:connector-curvature="0"
       id="path78"
       d="m 1056.4131,229.69 c 17.39,-9.93 34.63,-20.12 52.08,-29.96 0.06,13.34 0.03,26.67 0.01,40 -23.27,13.29 -46.48,26.69 -69.62,40.2 l -0.31,-0.19 c -11.13,-6.94 -22.77,-13.03 -33.97,-19.86 17.03,-10.44 34.6,-20.03 51.81,-30.19 z" />
    <path
       style="fill:#ef4278"
       inkscape:connector-curvature="0"
       id="path80"
       d="m 1350.8531,259.74 c 34.51,-20.07 69.23,-39.82 103.67,-60.01 0.01,13.31 -0.03,26.63 0.02,39.95 -22.97,13.66 -46.27,26.79 -69.38,40.22 -11.23,-7.07 -23.01,-13.21 -34.31,-20.16 z" />
    <path
       style="fill:#d252ad"
       inkscape:connector-curvature="0"
       id="path82"
       d="m 34.523054,219.75 c 23.06,13.4 46.17,26.74 69.309996,40.01 11.32,6.92 23.06,13.16 34.34,20.16 -11.41,6.46 -22.68,13.18 -34.1,19.62 -1.57,-0.25 -2.87,-1.27 -4.239996,-1.98 -21.75,-12.64 -43.59,-25.12 -65.33,-37.77 0.04,-13.35 0.01,-26.69 0.02,-40.04 z" />
    <path
       style="fill:#ef4278"
       inkscape:connector-curvature="0"
       id="path84"
       d="m 103.83305,259.76 c 23.06,-13.45 46.22,-26.72 69.33,-40.07 11.23,7 22.99,13.11 34.24,20.08 -22.94,13.61 -46.2,26.69 -69.23,40.15 -11.28,-7 -23.02,-13.24 -34.34,-20.16 z" />
    <path
       style="fill:#d252ad"
       inkscape:connector-curvature="0"
       id="path86"
       d="m 1281.5231,219.7 c 23.04,13.47 46.18,26.75 69.33,40.04 11.3,6.95 23.08,13.09 34.31,20.16 -11.48,6.62 -22.89,13.38 -34.48,19.8 -23.07,-13.28 -46.15,-26.55 -69.16,-39.94 0,-13.35 -0.01,-26.71 0,-40.06 z" />
    <path
       style="fill:#d252ad"
       inkscape:connector-curvature="0"
       id="path88"
       d="m 381.04305,219.92 c 23.1,13.22 46.12,26.61 69.18,39.9 11.33,6.85 23.06,13.02 34.26,20.07 -11.34,6.74 -22.9,13.1 -34.19,19.92 -23.14,-13.21 -46.19,-26.58 -69.24,-39.96 -0.04,-13.31 -0.02,-26.62 -0.01,-39.93 z" />
    <path
       style="fill:#d252ad"
       inkscape:connector-curvature="0"
       id="path90"
       d="m 658.04305,219.91 c 23.17,13.1 46.09,26.62 69.2,39.82 11.36,6.82 23,13.13 34.28,20.07 -11.37,6.84 -22.84,13.57 -34.5,19.89 -22.97,-13.31 -45.96,-26.59 -68.97,-39.83 -0.04,-13.31 -0.02,-26.63 -0.01,-39.95 z" />
    <path
       style="fill:#d252ad"
       inkscape:connector-curvature="0"
       id="path92"
       d="m 935.04305,219.81 c 23.26,13.23 46.34,26.76 69.56005,40.07 11.2,6.83 22.84,12.92 33.97,19.86 -11.07,7.16 -22.87,13.18 -34.12,20.07 -23.14005,-13.32 -46.27005,-26.65 -69.36005,-40.07 -0.14,-13.31 -0.03,-26.62 -0.05,-39.93 z" />
  </g>
  <text
     xml:space="preserve"
     style="font-style:normal;font-variant:normal;font-weight:normal;font-stretch:normal;font-size:40px;line-height:0.25;font-family:'DejaVu Serif';-inkscape-font-specification:'DejaVu Serif';letter-spacing:0px;word-spacing:0px;fill:#000000;fill-opacity:1;stroke:none"
     x="436.95312"
     y="373.20837"
     id="text53"><tspan
       sodipodi:role="line"
       id="tspan51"
       x="436.95312"
       y="373.20837"
       style="font-size:96px;text-align:center;text-anchor:middle">Clubelek</tspan></text>
  <g
     id="g105"
     transform="translate(-0.22265625,-79.411621)">
    <text
       id="text59"
       y="546.41272"
       x="441.11328"
       style="font-style:normal;font-variant:normal;font-weight:normal;font-stretch:normal;font-size:40px;line-height:0.25;font-family:'DejaVu Serif';-inkscape-font-specification:'DejaVu Serif';text-align:center;letter-spacing:0px;word-spacing:0px;text-anchor:middle;fill:#000000;fill-opacity:1;stroke:none"
       xml:space="preserve"><tspan
         style="font-size:32px;line-height:1.25"
         y="546.41272"
         x="441.11328"
         id="tspan57"
         sodipodi:role="line">Association de mécatronique</tspan><tspan
         id="tspan63"
         style="font-size:32px;line-height:1.25"
         y="586.41272"
         x="441.11328"
         sodipodi:role="line">de l'INSA Lyon</tspan><tspan
         style="font-size:32px;line-height:1.25"
         id="tspan61"
         y="613.49084"
         x="441.11328"
         sodipodi:role="line" /></text>
    <text
       id="text59-5"
       y="644.4458"
       x="441.5918"
       style="font-style:normal;font-variant:normal;font-weight:normal;font-stretch:normal;font-size:40px;line-height:0.25;font-family:'DejaVu Serif';-inkscape-font-specification:'DejaVu Serif';text-align:center;letter-spacing:0px;word-spacing:0px;text-anchor:middle;fill:#000000;fill-opacity:1;stroke:none"
       xml:space="preserve"><tspan
         style="font-style:italic;font-variant:normal;font-weight:normal;font-stretch:normal;font-size:32px;line-height:1.25;font-family:'DejaVu Serif';-inkscape-font-specification:'DejaVu Serif Italic'"
         y="644.4458"
         x="441.5918"
         id="tspan57-1"
         sodipodi:role="line">Mechatronics student club</tspan><tspan
         id="tspan63-8"
         style="font-style:italic;font-variant:normal;font-weight:normal;font-stretch:normal;font-size:32px;line-height:1.25;font-family:'DejaVu Serif';-inkscape-font-specification:'DejaVu Serif Italic'"
         y="684.4458"
         x="441.5918"
         sodipodi:role="line">of INSA Lyon</tspan><tspan
         style="font-style:italic;font-variant:normal;font-weight:normal;font-stretch:normal;font-size:32px;line-height:1.25;font-family:'DejaVu Serif';-inkscape-font-specification:'DejaVu Serif Italic'"
         id="tspan61-6"
         y="711.52393"
         x="441.5918"
         sodipodi:role="line" /></text>
  </g>
  <text
     xml:space="preserve"
     style="font-style:normal;font-variant:normal;font-weight:normal;font-stretch:normal;font-size:40px;line-height:0.25;font-family:'DejaVu Serif';-inkscape-font-specification:'DejaVu Serif';text-align:center;letter-spacing:0px;word-spacing:0px;text-anchor:middle;fill:#000000;fill-opacity:1;stroke:none"
     x="439.42969"
     y="1111.8312"
     id="text91"><tspan
       sodipodi:role="line"
       id="tspan89"
       x="439.42969"
       y="1111.8312"
       style="font-size:32px;line-height:1.25">clubelek@insa-lyon.fr</tspan><tspan
       sodipodi:role="line"
       x="439.42969"
       y="1151.8312"
       style="font-size:32px;line-height:1.25"
       id="tspan95">https://clubelek.fr</tspan><tspan
       sodipodi:role="line"
       x="439.42969"
       y="1191.8312"
       style="font-size:32px;line-height:1.25"
       id="tspan93">https://chat.clubelek.fr</tspan></text>
  <g
     id="g901">
    <text
       id="text53-7"
       y="737.31384"
       x="439.82812"
       style="font-style:normal;font-variant:normal;font-weight:normal;font-stretch:normal;font-size:40px;line-height:0.25;font-family:'DejaVu Serif';-inkscape-font-specification:'DejaVu Serif';letter-spacing:0px;word-spacing:0px;fill:#000000;fill-opacity:1;stroke:none"
       xml:space="preserve"><tspan
         id="tspan125"
         style="font-size:53.33333333px;line-height:1.25;text-align:center;text-anchor:middle"
         y="737.31384"
         x="439.82812"
         sodipodi:role="line">Passeport Hackerspace</tspan></text>
    <text
       id="text53-7-2"
       y="808.26184"
       x="440.45312"
       style="font-style:normal;font-variant:normal;font-weight:normal;font-stretch:normal;font-size:40px;line-height:0.25;font-family:'DejaVu Serif';-inkscape-font-specification:'DejaVu Serif';letter-spacing:0px;word-spacing:0px;fill:#000000;fill-opacity:1;stroke:none"
       xml:space="preserve"><tspan
         id="tspan125-7"
         style="font-style:italic;font-variant:normal;font-weight:normal;font-stretch:normal;font-size:53.33333206px;line-height:1.25;font-family:'DejaVu Serif';-inkscape-font-specification:'DejaVu Serif Italic';text-align:center;text-anchor:middle"
         y="808.26184"
         x="440.45312"
         sodipodi:role="line">Hackerspace Passport</tspan></text>
  </g>
</svg>
