<?xml version="1.0" encoding="UTF-8" standalone="no"?>
<svg
   xmlns:dc="http://purl.org/dc/elements/1.1/"
   xmlns:cc="http://creativecommons.org/ns#"
   xmlns:rdf="http://www.w3.org/1999/02/22-rdf-syntax-ns#"
   xmlns:svg="http://www.w3.org/2000/svg"
   xmlns="http://www.w3.org/2000/svg"
   xmlns:sodipodi="http://sodipodi.sourceforge.net/DTD/sodipodi-0.dtd"
   xmlns:inkscape="http://www.inkscape.org/namespaces/inkscape"
   width="415.57156pt"
   height="460.10001pt"
   viewBox="0 0 415.57156 460.10001"
   version="1.1"
   id="svg30"
   sodipodi:docname="clubelek_color.svg"
   inkscape:version="0.92.2 (5c3e80d, 2017-08-06)">
  <metadata
     id="metadata36">
    <rdf:RDF>
      <cc:Work
         rdf:about="">
        <dc:format>image/svg+xml</dc:format>
        <dc:type
           rdf:resource="http://purl.org/dc/dcmitype/StillImage" />
        <dc:title></dc:title>
      </cc:Work>
    </rdf:RDF>
  </metadata>
  <defs
     id="defs34" />
  <sodipodi:namedview
     pagecolor="#ffffff"
     bordercolor="#666666"
     borderopacity="1"
     objecttolerance="10"
     gridtolerance="10"
     guidetolerance="10"
     inkscape:pageopacity="0"
     inkscape:pageshadow="2"
     inkscape:window-width="1920"
     inkscape:window-height="1017"
     id="namedview32"
     showgrid="false"
     inkscape:zoom="0.65555556"
     inkscape:cx="8.3667652"
     inkscape:cy="399.71245"
     inkscape:window-x="-8"
     inkscape:window-y="-8"
     inkscape:window-maximized="1"
     inkscape:current-layer="svg30" />
  <path
     d="m 173.05155,20.12 c 11.66,-6.68 23.24,-13.49 34.93,-20.12 0.05,53.35 0.01,106.7 0.02,160.04 -7.63,0.17 -15.28,-0.33 -22.89,0.21 -4.59,6.06 -7.75,13.28 -11.85,19.76 -34.56,-19.88 -69,-39.95 -103.580003,-59.79 11.09,-7.24 22.95,-13.33 34.310003,-20.19 11.66,6.53 23.06,13.52 34.76,19.97 11.39,-6.72 22.95,-13.13 34.27,-19.96 -0.01,-26.64 -0.07,-53.28 0.03,-79.92 z"
     id="path4"
     inkscape:connector-curvature="0"
     style="fill:#c6e1d3" />
  <path
     d="m 207.98155,0 c 11.41,6.97 23.24,13.23 34.59,20.29 -0.14,26.56 -0.04,53.12 -0.05,79.68 11.42,6.85 23.04,13.34 34.52,20.08 11.48,-6.73 23.11,-13.21 34.54,-20.04 11.67,6.62 23.2,13.49 34.88,20.09 -34.74,19.85 -69.38,39.89 -103.94,60.06 -3.86,-6.71 -7.72,-13.42 -11.61,-20.11 -7.64,-0.02 -15.27,-0.01 -22.91,-0.01 -0.01,-53.34 0.03,-106.69 -0.02,-160.04 z"
     id="path6"
     inkscape:connector-curvature="0"
     style="fill:#fcd03d" />
  <path
     d="m 69.411547,120.07 0.27,0.15 c 34.580003,19.84 69.020003,39.91 103.580003,59.79 -3.67,6.74 -7.95,13.16 -11.32,20.05 3.4,6.85 7.63,13.29 11.32,20.01 -46.1,26.63 -92.270003,53.17 -138.270003,79.98 0.01,-13.31 0.03,-26.63 -0.01,-39.95 22.84,-13.65 46.13,-26.56 69.020003,-40.15 0,-13.27 0,-26.55 0,-39.82 -11.120003,-6.71 -22.480003,-13 -33.680003,-19.56 -0.19,-0.23 -0.57,-0.67 -0.76,-0.89 -0.22,-13.2 0.1,-26.41 -0.15,-39.61 z"
     id="path8"
     inkscape:connector-curvature="0"
     style="fill:#1baec2" />
  <path
     d="m 242.52155,180.16 c 34.56,-20.17 69.2,-40.21 103.94,-60.06 0.09,13.29 0.06,26.58 0.02,39.88 -11.7,6.6 -23.24,13.48 -34.93,20.1 -0.09,13.3 -0.04,26.59 -0.02,39.88 23.15,13.38 46.33,26.73 69.46,40.17 0.03,13.33 0,26.66 0.01,40 -46.13,-26.79 -92.43,-53.3 -138.51,-80.17 3.86,-6.64 7.66,-13.3 11.53,-19.93 -3.87,-6.6 -7.66,-13.25 -11.5,-19.87 z"
     id="path10"
     inkscape:connector-curvature="0"
     style="fill:#ffac78" />
  <path
     d="m 173.26155,180.01 c 4.1,-6.48 7.26,-13.7 11.85,-19.76 7.61,-0.54 15.26,-0.04 22.89,-0.21 7.64,0 15.27,-0.01 22.91,0.01 3.89,6.69 7.75,13.4 11.61,20.11 3.84,6.62 7.63,13.27 11.5,19.87 -3.87,6.63 -7.67,13.29 -11.53,19.93 -3.84,6.7 -7.71,13.38 -11.57,20.07 -7.65,0.02 -15.29,0 -22.93,0.01 -7.72,0.01 -15.43,-0.02 -23.15,0.01 -3.91,-6.63 -7.7,-13.33 -11.58,-19.98 -3.69,-6.72 -7.92,-13.16 -11.32,-20.01 3.37,-6.89 7.65,-13.31 11.32,-20.05 z"
     id="path12"
     inkscape:connector-curvature="0"
     style="fill:#ffffff" />
  <path
     d="m 196.20155,180.12 c 3.93,-0.14 7.86,-0.12 11.8,-0.07 0,6.74 -0.02,13.48 0.02,20.22 l -0.28,-0.19 c -5.61,-3.52 -11.46,-6.63 -17.11,-10.07 1.85,-3.3 3.69,-6.6 5.57,-9.89 z"
     id="path14"
     inkscape:connector-curvature="0"
     style="fill:#c6e1d3" />
  <path
     d="m 208.00155,180.05 c 3.86,-0.02 7.72,-0.07 11.58,0.09 1.66,3.2 3.53,6.28 5.3,9.42 -4.92,4.45 -11.37,6.59 -16.64,10.54 l -0.22,0.17 c -0.04,-6.74 -0.02,-13.48 -0.02,-20.22 z"
     id="path16"
     inkscape:connector-curvature="0"
     style="fill:#fcd03d" />
  <path
     d="m 224.88155,189.56 c 2,3.51 4.04,7 6.11,10.48 -2,3.34 -3.92,6.72 -5.91,10.06 -5.5,-3.53 -11.38,-6.41 -16.84,-10 5.27,-3.95 11.72,-6.09 16.64,-10.54 z"
     id="path18"
     inkscape:connector-curvature="0"
     style="fill:#ffac78" />
  <path
     d="m 184.81155,200.11 c 1.85,-3.42 3.75,-6.81 5.82,-10.1 5.65,3.44 11.5,6.55 17.11,10.07 -5.71,3.35 -11.47,6.63 -17.18,9.99 -1.97,-3.29 -3.83,-6.64 -5.75,-9.96 z"
     id="path20"
     inkscape:connector-curvature="0"
     style="fill:#1baec2" />
  <path
     d="m 207.74155,200.08 0.28,0.19 c -0.07,6.59 -0.03,13.18 -0.03,19.77 -3.9,0 -7.8,0 -11.7,0 -1.92,-3.31 -3.79,-6.66 -5.73,-9.97 5.71,-3.36 11.47,-6.64 17.18,-9.99 z"
     id="path22"
     inkscape:connector-curvature="0"
     style="fill:#d150ac" />
  <path
     d="m 208.02155,200.27 0.22,-0.17 c 5.46,3.59 11.34,6.47 16.84,10 -1.79,3.3 -3.77,6.49 -5.49,9.83 -3.86,0.18 -7.73,0.11 -11.6,0.11 0,-6.59 -0.04,-13.18 0.03,-19.77 z"
     id="path24"
     inkscape:connector-curvature="0"
     style="fill:#ef4178" />
  <path
     d="m 34.991547,300.05 c 46,-26.81 92.170003,-53.35 138.270003,-79.98 3.88,6.65 7.67,13.35 11.58,19.98 7.72,-0.03 15.43,0 23.15,-0.01 -0.01,22 0,44.01 0,66.01 -0.05,4.56 -0.16,9.14 0.39,13.68 l 0.06,0.57 c -23.33,-13.29 -46.53,-26.81 -69.76,-40.28 -22.56,13.01 -45.060003,26.1 -67.650003,39.06 -1.28,0.55 -1.79,1.53 -1.54,2.93 0.01,12.67 0.06,25.35 -0.02,38.02 11.46,6.79 23.13,13.21 34.530003,20.09 0,13.28 0,26.55 0,39.83 -11.430003,6.83 -22.990003,13.45 -34.590003,20 0.22,-13.23 -0.05,-26.46 0.14,-39.68 -11.37,-6.99 -23.16,-13.3 -34.56,-20.24 -0.01,26.69 0.06,53.38 -0.03,80.07 -11.68,-6.66 -23.26,-13.49 -34.94999999,-20.13 -0.01,-26.62 -0.02,-53.24 0,-79.86 C 11.711547,353.47 23.291547,346.62 34.981547,339.97 c 0.04,-13.31 0.02,-26.61 0.01,-39.92 z"
     id="path26"
     inkscape:connector-curvature="0"
     style="fill:#d150ac" />
  <path
     d="m 230.92155,240.03 c 3.86,-6.69 7.73,-13.37 11.57,-20.07 46.08,26.87 92.38,53.38 138.51,80.17 -0.01,13.28 0.03,26.56 -0.02,39.85 11.39,6.98 23.25,13.21 34.59,20.29 -0.11,26.52 -0.09,53.05 -0.01,79.57 -11.36,7.02 -23.15,13.32 -34.57,20.22 0,-26.69 0.05,-53.38 -0.03,-80.08 -11.49,6.6 -22.89,13.37 -34.45,19.84 0.01,13.42 -0.04,26.85 0.03,40.28 -11.79,-6.63 -23.48,-13.43 -35.11,-20.3 0.11,-13.18 0.1,-26.35 0,-39.52 11.61,-6.9 23.34,-13.61 35.05,-20.33 0.02,-13.27 0.02,-26.55 0.01,-39.82 -23.19,-13.32 -46.3,-26.75 -69.46,-40.11 -22.85,13.3 -45.77,26.48 -68.65,39.71 -0.55,-4.54 -0.44,-9.12 -0.39,-13.68 0,-22 -0.01,-44.01 0,-66.01 7.64,-0.01 15.28,0.01 22.93,-0.01 z"
     id="path28"
     inkscape:connector-curvature="0"
     style="fill:#ef4178" />
</svg>
