<?xml version="1.0" encoding="utf-8" ?>
<svg baseProfile="tiny" height="100%" version="1.2" width="100%" xmlns="http://www.w3.org/2000/svg" xmlns:ev="http://www.w3.org/2001/xml-events" xmlns:xlink="http://www.w3.org/1999/xlink"><defs /><rect fill="none" height="566" width="800" x="0" y="0" /><g transform="translate(0,93.0)"><g transform="translate(315.0)"><circle cx="90" cy="10" fill="black" r="2.5" stroke="black" /><circle cx="90" cy="20" fill="black" r="2.5" stroke="black" /><circle cx="90" cy="30" fill="black" r="2.5" stroke="black" /><circle cx="90" cy="40" fill="black" r="2.5" stroke="black" /><circle cx="80" cy="50" fill="black" r="2.5" stroke="black" /><circle cx="90" cy="50" fill="black" r="2.5" stroke="black" /><circle cx="100" cy="50" fill="black" r="2.5" stroke="black" /><circle cx="20" cy="60" fill="black" r="2.5" stroke="black" /><circle cx="80" cy="60" fill="black" r="2.5" stroke="black" /><circle cx="90" cy="60" fill="black" r="2.5" stroke="black" /><circle cx="100" cy="60" fill="black" r="2.5" stroke="black" /><circle cx="160" cy="60" fill="black" r="2.5" stroke="black" /><circle cx="20" cy="70" fill="black" r="2.5" stroke="black" /><circle cx="70" cy="70" fill="black" r="2.5" stroke="black" /><circle cx="80" cy="70" fill="black" r="2.5" stroke="black" /><circle cx="90" cy="70" fill="black" r="2.5" stroke="black" /><circle cx="100" cy="70" fill="black" r="2.5" stroke="black" /><circle cx="110" cy="70" fill="black" r="2.5" stroke="black" /><circle cx="160" cy="70" fill="black" r="2.5" stroke="black" /><circle cx="20" cy="80" fill="black" r="2.5" stroke="black" /><circle cx="70" cy="80" fill="black" r="2.5" stroke="black" /><circle cx="80" cy="80" fill="black" r="2.5" stroke="black" /><circle cx="90" cy="80" fill="black" r="2.5" stroke="black" /><circle cx="100" cy="80" fill="black" r="2.5" stroke="black" /><circle cx="110" cy="80" fill="black" r="2.5" stroke="black" /><circle cx="160" cy="80" fill="black" r="2.5" stroke="black" /><circle cx="20" cy="90" fill="black" r="2.5" stroke="black" /><circle cx="60" cy="90" fill="black" r="2.5" stroke="black" /><circle cx="80" cy="90" fill="black" r="2.5" stroke="black" /><circle cx="90" cy="90" fill="black" r="2.5" stroke="black" /><circle cx="100" cy="90" fill="black" r="2.5" stroke="black" /><circle cx="120" cy="90" fill="black" r="2.5" stroke="black" /><circle cx="160" cy="90" fill="black" r="2.5" stroke="black" /><circle cx="10" cy="100" fill="black" r="2.5" stroke="black" /><circle cx="20" cy="100" fill="black" r="2.5" stroke="black" /><circle cx="30" cy="100" fill="black" r="2.5" stroke="black" /><circle cx="50" cy="100" fill="black" r="2.5" stroke="black" /><circle cx="60" cy="100" fill="black" r="2.5" stroke="black" /><circle cx="70" cy="100" fill="black" r="2.5" stroke="black" /><circle cx="90" cy="100" fill="black" r="2.5" stroke="black" /><circle cx="110" cy="100" fill="black" r="2.5" stroke="black" /><circle cx="120" cy="100" fill="black" r="2.5" stroke="black" /><circle cx="130" cy="100" fill="black" r="2.5" stroke="black" /><circle cx="150" cy="100" fill="black" r="2.5" stroke="black" /><circle cx="160" cy="100" fill="black" r="2.5" stroke="black" /><circle cx="170" cy="100" fill="black" r="2.5" stroke="black" /><circle cx="10" cy="110" fill="black" r="2.5" stroke="black" /><circle cx="20" cy="110" fill="black" r="2.5" stroke="black" /><circle cx="30" cy="110" fill="black" r="2.5" stroke="black" /><circle cx="40" cy="110" fill="black" r="2.5" stroke="black" /><circle cx="50" cy="110" fill="black" r="2.5" stroke="black" /><circle cx="60" cy="110" fill="black" r="2.5" stroke="black" /><circle cx="70" cy="110" fill="black" r="2.5" stroke="black" /><circle cx="80" cy="110" fill="black" r="2.5" stroke="black" /><circle cx="100" cy="110" fill="black" r="2.5" stroke="black" /><circle cx="110" cy="110" fill="black" r="2.5" stroke="black" /><circle cx="120" cy="110" fill="black" r="2.5" stroke="black" /><circle cx="130" cy="110" fill="black" r="2.5" stroke="black" /><circle cx="140" cy="110" fill="black" r="2.5" stroke="black" /><circle cx="150" cy="110" fill="black" r="2.5" stroke="black" /><circle cx="160" cy="110" fill="black" r="2.5" stroke="black" /><circle cx="170" cy="110" fill="black" r="2.5" stroke="black" /><circle cx="10" cy="120" fill="black" r="2.5" stroke="black" /><circle cx="20" cy="120" fill="black" r="2.5" stroke="black" /><circle cx="30" cy="120" fill="black" r="2.5" stroke="black" /><circle cx="40" cy="120" fill="black" r="2.5" stroke="black" /><circle cx="50" cy="120" fill="black" r="2.5" stroke="black" /><circle cx="60" cy="120" fill="black" r="2.5" stroke="black" /><circle cx="70" cy="120" fill="black" r="2.5" stroke="black" /><circle cx="80" cy="120" fill="black" r="2.5" stroke="black" /><circle cx="100" cy="120" fill="black" r="2.5" stroke="black" /><circle cx="110" cy="120" fill="black" r="2.5" stroke="black" /><circle cx="120" cy="120" fill="black" r="2.5" stroke="black" /><circle cx="130" cy="120" fill="black" r="2.5" stroke="black" /><circle cx="140" cy="120" fill="black" r="2.5" stroke="black" /><circle cx="150" cy="120" fill="black" r="2.5" stroke="black" /><circle cx="160" cy="120" fill="black" r="2.5" stroke="black" /><circle cx="170" cy="120" fill="black" r="2.5" stroke="black" /><circle cx="10" cy="130" fill="black" r="2.5" stroke="black" /><circle cx="20" cy="130" fill="black" r="2.5" stroke="black" /><circle cx="30" cy="130" fill="black" r="2.5" stroke="black" /><circle cx="40" cy="130" fill="black" r="2.5" stroke="black" /><circle cx="50" cy="130" fill="black" r="2.5" stroke="black" /><circle cx="60" cy="130" fill="black" r="2.5" stroke="black" /><circle cx="80" cy="130" fill="black" r="2.5" stroke="black" /><circle cx="90" cy="130" fill="black" r="2.5" stroke="black" /><circle cx="100" cy="130" fill="black" r="2.5" stroke="black" /><circle cx="120" cy="130" fill="black" r="2.5" stroke="black" /><circle cx="130" cy="130" fill="black" r="2.5" stroke="black" /><circle cx="140" cy="130" fill="black" r="2.5" stroke="black" /><circle cx="150" cy="130" fill="black" r="2.5" stroke="black" /><circle cx="160" cy="130" fill="black" r="2.5" stroke="black" /><circle cx="170" cy="130" fill="black" r="2.5" stroke="black" /><circle cx="10" cy="140" fill="black" r="2.5" stroke="black" /><circle cx="20" cy="140" fill="black" r="2.5" stroke="black" /><circle cx="30" cy="140" fill="black" r="2.5" stroke="black" /><circle cx="50" cy="140" fill="black" r="2.5" stroke="black" /><circle cx="60" cy="140" fill="black" r="2.5" stroke="black" /><circle cx="80" cy="140" fill="black" r="2.5" stroke="black" /><circle cx="90" cy="140" fill="black" r="2.5" stroke="black" /><circle cx="100" cy="140" fill="black" r="2.5" stroke="black" /><circle cx="120" cy="140" fill="black" r="2.5" stroke="black" /><circle cx="130" cy="140" fill="black" r="2.5" stroke="black" /><circle cx="150" cy="140" fill="black" r="2.5" stroke="black" /><circle cx="160" cy="140" fill="black" r="2.5" stroke="black" /><circle cx="170" cy="140" fill="black" r="2.5" stroke="black" /><circle cx="10" cy="150" fill="black" r="2.5" stroke="black" /><circle cx="30" cy="150" fill="black" r="2.5" stroke="black" /><circle cx="60" cy="150" fill="black" r="2.5" stroke="black" /><circle cx="70" cy="150" fill="black" r="2.5" stroke="black" /><circle cx="80" cy="150" fill="black" r="2.5" stroke="black" /><circle cx="90" cy="150" fill="black" r="2.5" stroke="black" /><circle cx="100" cy="150" fill="black" r="2.5" stroke="black" /><circle cx="110" cy="150" fill="black" r="2.5" stroke="black" /><circle cx="120" cy="150" fill="black" r="2.5" stroke="black" /><circle cx="150" cy="150" fill="black" r="2.5" stroke="black" /><circle cx="170" cy="150" fill="black" r="2.5" stroke="black" /><circle cx="10" cy="160" fill="black" r="2.5" stroke="black" /><circle cx="20" cy="160" fill="black" r="2.5" stroke="black" /><circle cx="30" cy="160" fill="black" r="2.5" stroke="black" /><circle cx="60" cy="160" fill="black" r="2.5" stroke="black" /><circle cx="70" cy="160" fill="black" r="2.5" stroke="black" /><circle cx="80" cy="160" fill="black" r="2.5" stroke="black" /><circle cx="90" cy="160" fill="black" r="2.5" stroke="black" /><circle cx="100" cy="160" fill="black" r="2.5" stroke="black" /><circle cx="110" cy="160" fill="black" r="2.5" stroke="black" /><circle cx="120" cy="160" fill="black" r="2.5" stroke="black" /><circle cx="150" cy="160" fill="black" r="2.5" stroke="black" /><circle cx="160" cy="160" fill="black" r="2.5" stroke="black" /><circle cx="170" cy="160" fill="black" r="2.5" stroke="black" /><circle cx="20" cy="170" fill="black" r="2.5" stroke="black" /><circle cx="70" cy="170" fill="black" r="2.5" stroke="black" /><circle cx="90" cy="170" fill="black" r="2.5" stroke="black" /><circle cx="110" cy="170" fill="black" r="2.5" stroke="black" /><circle cx="160" cy="170" fill="black" r="2.5" stroke="black" /><circle cx="20" cy="180" fill="black" r="2.5" stroke="black" /><circle cx="70" cy="180" fill="black" r="2.5" stroke="black" /><circle cx="80" cy="180" fill="black" r="2.5" stroke="black" /><circle cx="90" cy="180" fill="black" r="2.5" stroke="black" /><circle cx="100" cy="180" fill="black" r="2.5" stroke="black" /><circle cx="110" cy="180" fill="black" r="2.5" stroke="black" /><circle cx="160" cy="180" fill="black" r="2.5" stroke="black" /><circle cx="90" cy="190" fill="black" r="2.5" stroke="black" /><circle cx="90" cy="200" fill="black" r="2.5" stroke="black" /><circle cx="20" cy="210" fill="black" r="2.5" stroke="black" /><circle cx="160" cy="210" fill="black" r="2.5" stroke="black" /><circle cx="20" cy="230" fill="black" r="2.5" stroke="black" /><circle cx="90" cy="230" fill="black" r="2.5" stroke="black" /><circle cx="160" cy="230" fill="black" r="2.5" stroke="black" /><circle cx="20" cy="250" fill="black" r="2.5" stroke="black" /><circle cx="90" cy="250" fill="black" r="2.5" stroke="black" /><circle cx="160" cy="250" fill="black" r="2.5" stroke="black" /><circle cx="90" cy="270" fill="black" r="2.5" stroke="black" /></g><g transform="translate(45.0,290)"><circle cx="10" cy="10" fill="black" r="2.5" stroke="black" /><circle cx="190" cy="10" fill="black" r="2.5" stroke="black" /><circle cx="10" cy="20" fill="black" r="2.5" stroke="black" /><circle cx="190" cy="20" fill="black" r="2.5" stroke="black" /><circle cx="10" cy="30" fill="black" r="2.5" stroke="black" /><circle cx="20" cy="30" fill="black" r="2.5" stroke="black" /><circle cx="30" cy="30" fill="black" r="2.5" stroke="black" /><circle cx="40" cy="30" fill="black" r="2.5" stroke="black" /><circle cx="80" cy="30" fill="black" r="2.5" stroke="black" /><circle cx="90" cy="30" fill="black" r="2.5" stroke="black" /><circle cx="100" cy="30" fill="black" r="2.5" stroke="black" /><circle cx="140" cy="30" fill="black" r="2.5" stroke="black" /><circle cx="150" cy="30" fill="black" r="2.5" stroke="black" /><circle cx="160" cy="30" fill="black" r="2.5" stroke="black" /><circle cx="190" cy="30" fill="black" r="2.5" stroke="black" /><circle cx="230" cy="30" fill="black" r="2.5" stroke="black" /><circle cx="260" cy="30" fill="black" r="2.5" stroke="black" /><circle cx="270" cy="30" fill="black" r="2.5" stroke="black" /><circle cx="280" cy="30" fill="black" r="2.5" stroke="black" /><circle cx="310" cy="30" fill="black" r="2.5" stroke="black" /><circle cx="330" cy="30" fill="black" r="2.5" stroke="black" /><circle cx="340" cy="30" fill="black" r="2.5" stroke="black" /><circle cx="380" cy="30" fill="black" r="2.5" stroke="black" /><circle cx="390" cy="30" fill="black" r="2.5" stroke="black" /><circle cx="400" cy="30" fill="black" r="2.5" stroke="black" /><circle cx="440" cy="30" fill="black" r="2.5" stroke="black" /><circle cx="450" cy="30" fill="black" r="2.5" stroke="black" /><circle cx="460" cy="30" fill="black" r="2.5" stroke="black" /><circle cx="500" cy="30" fill="black" r="2.5" stroke="black" /><circle cx="510" cy="30" fill="black" r="2.5" stroke="black" /><circle cx="520" cy="30" fill="black" r="2.5" stroke="black" /><circle cx="560" cy="30" fill="black" r="2.5" stroke="black" /><circle cx="570" cy="30" fill="black" r="2.5" stroke="black" /><circle cx="580" cy="30" fill="black" r="2.5" stroke="black" /><circle cx="620" cy="30" fill="black" r="2.5" stroke="black" /><circle cx="630" cy="30" fill="black" r="2.5" stroke="black" /><circle cx="640" cy="30" fill="black" r="2.5" stroke="black" /><circle cx="680" cy="30" fill="black" r="2.5" stroke="black" /><circle cx="690" cy="30" fill="black" r="2.5" stroke="black" /><circle cx="700" cy="30" fill="black" r="2.5" stroke="black" /><circle cx="10" cy="40" fill="black" r="2.5" stroke="black" /><circle cx="50" cy="40" fill="black" r="2.5" stroke="black" /><circle cx="110" cy="40" fill="black" r="2.5" stroke="black" /><circle cx="130" cy="40" fill="black" r="2.5" stroke="black" /><circle cx="170" cy="40" fill="black" r="2.5" stroke="black" /><circle cx="190" cy="40" fill="black" r="2.5" stroke="black" /><circle cx="220" cy="40" fill="black" r="2.5" stroke="black" /><circle cx="250" cy="40" fill="black" r="2.5" stroke="black" /><circle cx="290" cy="40" fill="black" r="2.5" stroke="black" /><circle cx="320" cy="40" fill="black" r="2.5" stroke="black" /><circle cx="350" cy="40" fill="black" r="2.5" stroke="black" /><circle cx="370" cy="40" fill="black" r="2.5" stroke="black" /><circle cx="430" cy="40" fill="black" r="2.5" stroke="black" /><circle cx="470" cy="40" fill="black" r="2.5" stroke="black" /><circle cx="530" cy="40" fill="black" r="2.5" stroke="black" /><circle cx="550" cy="40" fill="black" r="2.5" stroke="black" /><circle cx="590" cy="40" fill="black" r="2.5" stroke="black" /><circle cx="610" cy="40" fill="black" r="2.5" stroke="black" /><circle cx="650" cy="40" fill="black" r="2.5" stroke="black" /><circle cx="670" cy="40" fill="black" r="2.5" stroke="black" /><circle cx="10" cy="50" fill="black" r="2.5" stroke="black" /><circle cx="50" cy="50" fill="black" r="2.5" stroke="black" /><circle cx="80" cy="50" fill="black" r="2.5" stroke="black" /><circle cx="90" cy="50" fill="black" r="2.5" stroke="black" /><circle cx="100" cy="50" fill="black" r="2.5" stroke="black" /><circle cx="110" cy="50" fill="black" r="2.5" stroke="black" /><circle cx="130" cy="50" fill="black" r="2.5" stroke="black" /><circle cx="190" cy="50" fill="black" r="2.5" stroke="black" /><circle cx="200" cy="50" fill="black" r="2.5" stroke="black" /><circle cx="210" cy="50" fill="black" r="2.5" stroke="black" /><circle cx="250" cy="50" fill="black" r="2.5" stroke="black" /><circle cx="260" cy="50" fill="black" r="2.5" stroke="black" /><circle cx="270" cy="50" fill="black" r="2.5" stroke="black" /><circle cx="280" cy="50" fill="black" r="2.5" stroke="black" /><circle cx="290" cy="50" fill="black" r="2.5" stroke="black" /><circle cx="320" cy="50" fill="black" r="2.5" stroke="black" /><circle cx="380" cy="50" fill="black" r="2.5" stroke="black" /><circle cx="390" cy="50" fill="black" r="2.5" stroke="black" /><circle cx="400" cy="50" fill="black" r="2.5" stroke="black" /><circle cx="430" cy="50" fill="black" r="2.5" stroke="black" /><circle cx="470" cy="50" fill="black" r="2.5" stroke="black" /><circle cx="500" cy="50" fill="black" r="2.5" stroke="black" /><circle cx="510" cy="50" fill="black" r="2.5" stroke="black" /><circle cx="520" cy="50" fill="black" r="2.5" stroke="black" /><circle cx="530" cy="50" fill="black" r="2.5" stroke="black" /><circle cx="550" cy="50" fill="black" r="2.5" stroke="black" /><circle cx="610" cy="50" fill="black" r="2.5" stroke="black" /><circle cx="620" cy="50" fill="black" r="2.5" stroke="black" /><circle cx="630" cy="50" fill="black" r="2.5" stroke="black" /><circle cx="640" cy="50" fill="black" r="2.5" stroke="black" /><circle cx="650" cy="50" fill="black" r="2.5" stroke="black" /><circle cx="680" cy="50" fill="black" r="2.5" stroke="black" /><circle cx="690" cy="50" fill="black" r="2.5" stroke="black" /><circle cx="700" cy="50" fill="black" r="2.5" stroke="black" /><circle cx="10" cy="60" fill="black" r="2.5" stroke="black" /><circle cx="50" cy="60" fill="black" r="2.5" stroke="black" /><circle cx="70" cy="60" fill="black" r="2.5" stroke="black" /><circle cx="110" cy="60" fill="black" r="2.5" stroke="black" /><circle cx="130" cy="60" fill="black" r="2.5" stroke="black" /><circle cx="170" cy="60" fill="black" r="2.5" stroke="black" /><circle cx="190" cy="60" fill="black" r="2.5" stroke="black" /><circle cx="220" cy="60" fill="black" r="2.5" stroke="black" /><circle cx="250" cy="60" fill="black" r="2.5" stroke="black" /><circle cx="320" cy="60" fill="black" r="2.5" stroke="black" /><circle cx="410" cy="60" fill="black" r="2.5" stroke="black" /><circle cx="430" cy="60" fill="black" r="2.5" stroke="black" /><circle cx="470" cy="60" fill="black" r="2.5" stroke="black" /><circle cx="490" cy="60" fill="black" r="2.5" stroke="black" /><circle cx="530" cy="60" fill="black" r="2.5" stroke="black" /><circle cx="550" cy="60" fill="black" r="2.5" stroke="black" /><circle cx="590" cy="60" fill="black" r="2.5" stroke="black" /><circle cx="610" cy="60" fill="black" r="2.5" stroke="black" /><circle cx="710" cy="60" fill="black" r="2.5" stroke="black" /><circle cx="10" cy="70" fill="black" r="2.5" stroke="black" /><circle cx="50" cy="70" fill="black" r="2.5" stroke="black" /><circle cx="80" cy="70" fill="black" r="2.5" stroke="black" /><circle cx="90" cy="70" fill="black" r="2.5" stroke="black" /><circle cx="100" cy="70" fill="black" r="2.5" stroke="black" /><circle cx="110" cy="70" fill="black" r="2.5" stroke="black" /><circle cx="140" cy="70" fill="black" r="2.5" stroke="black" /><circle cx="150" cy="70" fill="black" r="2.5" stroke="black" /><circle cx="160" cy="70" fill="black" r="2.5" stroke="black" /><circle cx="190" cy="70" fill="black" r="2.5" stroke="black" /><circle cx="230" cy="70" fill="black" r="2.5" stroke="black" /><circle cx="260" cy="70" fill="black" r="2.5" stroke="black" /><circle cx="270" cy="70" fill="black" r="2.5" stroke="black" /><circle cx="280" cy="70" fill="black" r="2.5" stroke="black" /><circle cx="310" cy="70" fill="black" r="2.5" stroke="black" /><circle cx="320" cy="70" fill="black" r="2.5" stroke="black" /><circle cx="330" cy="70" fill="black" r="2.5" stroke="black" /><circle cx="380" cy="70" fill="black" r="2.5" stroke="black" /><circle cx="390" cy="70" fill="black" r="2.5" stroke="black" /><circle cx="400" cy="70" fill="black" r="2.5" stroke="black" /><circle cx="430" cy="70" fill="black" r="2.5" stroke="black" /><circle cx="440" cy="70" fill="black" r="2.5" stroke="black" /><circle cx="450" cy="70" fill="black" r="2.5" stroke="black" /><circle cx="460" cy="70" fill="black" r="2.5" stroke="black" /><circle cx="500" cy="70" fill="black" r="2.5" stroke="black" /><circle cx="510" cy="70" fill="black" r="2.5" stroke="black" /><circle cx="520" cy="70" fill="black" r="2.5" stroke="black" /><circle cx="530" cy="70" fill="black" r="2.5" stroke="black" /><circle cx="560" cy="70" fill="black" r="2.5" stroke="black" /><circle cx="570" cy="70" fill="black" r="2.5" stroke="black" /><circle cx="580" cy="70" fill="black" r="2.5" stroke="black" /><circle cx="620" cy="70" fill="black" r="2.5" stroke="black" /><circle cx="630" cy="70" fill="black" r="2.5" stroke="black" /><circle cx="640" cy="70" fill="black" r="2.5" stroke="black" /><circle cx="680" cy="70" fill="black" r="2.5" stroke="black" /><circle cx="690" cy="70" fill="black" r="2.5" stroke="black" /><circle cx="700" cy="70" fill="black" r="2.5" stroke="black" /><circle cx="430" cy="80" fill="black" r="2.5" stroke="black" /><circle cx="430" cy="90" fill="black" r="2.5" stroke="black" /></g></g></svg>