<?xml version="1.0" encoding="UTF-8" standalone="no"?>
<svg
   xmlns:dc="http://purl.org/dc/elements/1.1/"
   xmlns:cc="http://creativecommons.org/ns#"
   xmlns:rdf="http://www.w3.org/1999/02/22-rdf-syntax-ns#"
   xmlns:svg="http://www.w3.org/2000/svg"
   xmlns="http://www.w3.org/2000/svg"
   xmlns:sodipodi="http://sodipodi.sourceforge.net/DTD/sodipodi-0.dtd"
   xmlns:inkscape="http://www.inkscape.org/namespaces/inkscape"
   width="1628.05pt"
   height="299.83002pt"
   viewBox="0 0 1628.05 299.83002"
   version="1.1"
   id="svg26"
   sodipodi:docname="label_bw.svg"
   inkscape:version="0.92.2 (5c3e80d, 2017-08-06)">
  <metadata
     id="metadata32">
    <rdf:RDF>
      <cc:Work
         rdf:about="">
        <dc:format>image/svg+xml</dc:format>
        <dc:type
           rdf:resource="http://purl.org/dc/dcmitype/StillImage" />
        <dc:title></dc:title>
      </cc:Work>
    </rdf:RDF>
  </metadata>
  <defs
     id="defs30" />
  <sodipodi:namedview
     pagecolor="#ffffff"
     bordercolor="#666666"
     borderopacity="1"
     objecttolerance="10"
     gridtolerance="10"
     guidetolerance="10"
     inkscape:pageopacity="0"
     inkscape:pageshadow="2"
     inkscape:window-width="1920"
     inkscape:window-height="1017"
     id="namedview28"
     showgrid="false"
     inkscape:zoom="0.15118913"
     inkscape:cx="1084.6667"
     inkscape:cy="200.04002"
     inkscape:window-x="-8"
     inkscape:window-y="-8"
     inkscape:window-maximized="1"
     inkscape:current-layer="svg26" />
  <path
     d="m 623.51,0 c 11.58,6.55 23.11,13.19 34.54,19.98 -0.18,26.58 0.12,53.17 -0.15,79.74 23.21,-13.12 46.15,-26.71 69.34,-39.87 33.85,19.45 67.62,39.04 101.45,58.52 0.93,0.62 2.57,1.12 2.31,2.58 0.01,39.24 0.01,78.48 0,117.71 0.26,1.48 -1.44,1.96 -2.38,2.6 -33.8,19.48 -67.55,39.04 -101.36,58.49 -34.51,-19.74 -68.87,-39.75 -103.33,-59.57 -0.11,-0.34 -0.31,-1.01 -0.42,-1.34 -0.02,-79.61 -0.02,-159.22 0,-238.84 z"
     id="path4"
     inkscape:connector-curvature="0"
     style="fill:#020202" />
  <path
     d="m 1142.87,19.87 c 11.61,6.56 23.17,13.2 34.63,20 0,79.95 0,159.91 0,239.86 -11.46,6.8 -23.02,13.44 -34.62,20 0.28,-60.3 0.04,-120.61 0.12,-180.92 -0.08,-32.98 0.16,-65.97 -0.13,-98.94 z"
     id="path6"
     inkscape:connector-curvature="0"
     style="fill:#020202" />
  <path
     d="m 242.51,20 c 11.55,6.6 23.12,13.19 34.54,20.01 -0.09,79.87 -0.06,159.74 -0.01,239.62 -11.44,6.77 -22.98,13.39 -34.53,19.96 -0.02,-93.19 -0.02,-186.39 0,-279.59 z"
     id="path8"
     inkscape:connector-curvature="0"
     style="fill:#020202" />
  <path
     d="m 1489.51,20.01 c 11.58,6.54 23.12,13.18 34.54,19.98 -0.18,39.91 0.12,79.83 -0.15,119.73 18.79,-10.58 37.34,-21.57 56.07,-32.25 4.49,-2.41 8.66,-5.45 13.34,-7.47 11.63,6.35 22.99,13.22 34.5,19.8 -23.05,13.38 -46.15,26.66 -69.23,40 23.15,13.41 46.39,26.67 69.47,40.2 -0.09,13.29 -0.06,26.59 -0.01,39.89 -34.74,-19.96 -69.34,-40.16 -104.14,-60.01 0.27,26.57 -0.03,53.16 0.15,79.73 -11.43,6.8 -22.96,13.44 -34.54,19.99 -0.02,-93.2 -0.01,-186.4 0,-279.59 z"
     id="path10"
     inkscape:connector-curvature="0"
     style="fill:#020202" />
  <path
     d="m 0,119.55 c 34.68,-19.7 69.07,-39.92 103.72,-59.7 34.59,19.95 69.24,39.82 103.73,59.95 -11.31,6.8 -22.86,13.18 -34.21,19.88 -2.22,-0.62 -4.12,-2.22 -6.17,-3.3 -21.1,-12.16 -42.19,-24.35 -63.29,-36.52 -23.17,13.2 -46.26,26.55 -69.3,39.99 0.03,26.63 0.03,53.26 0,79.9 23.03,13.44 46.13,26.78 69.3,39.99 22.74,-13.13 45.51,-26.22 68.22,-39.41 1.04,-1.07 2.13,0.17 3.09,0.63 10.71,6.41 21.68,12.38 32.36,18.84 -34.47,20.14 -69.13,39.95 -103.67,59.95 C 69.09,280.02 34.71,259.74 0,240.05 0,199.88 0,159.72 0,119.55 Z"
     id="path12"
     inkscape:connector-curvature="0"
     style="fill:#020202" />
  <path
     d="m 900.47,119.85 c 34.6,-20.15 69.32,-40.1 104.01,-60.1 34.55,20.17 69.23,40.16 103.95,60.05 -34.77,19.8 -69.29,40.05 -104.02,59.91 -11.74,-6.39 -23.13,-13.43 -34.82,-19.91 23.1,-13.27 46.22,-26.52 69.21,-39.99 -11.32,-6.91 -23.02,-13.15 -34.33,-20.05 -23.19,13.36 -46.4,26.67 -69.5,40.18 0.06,26.57 0.05,53.15 0,79.72 23.1,13.51 46.31,26.82 69.5,40.18 34.58,-20.17 69.28,-40.17 104.02,-60.08 0.03,13.33 0,26.66 0.01,39.99 -34.79,19.83 -69.34,40.12 -104.12,59.96 -34.72,-19.83 -69.33,-39.88 -103.91,-59.96 0.05,-39.97 0.05,-79.93 0,-119.9 z"
     id="path14"
     inkscape:connector-curvature="0"
     style="fill:#020202" />
  <path
     d="m 1247.36,119.64 c 34.33,-20.14 68.91,-39.93 103.41,-59.79 33.8,19.41 67.5,39 101.29,58.43 0.57,0.38 1.69,1.14 2.26,1.52 -16.88,10.22 -34.18,19.77 -51.2,29.77 -17.47,10.03 -34.86,20.18 -52.34,30.18 -11.58,-6.54 -23.08,-13.23 -34.57,-19.95 23,-13.44 46.13,-26.66 69.18,-40 -11.54,-6.64 -23.05,-13.34 -34.61,-19.94 -23.14,13.26 -46.27,26.54 -69.28,40.01 0,26.62 0,53.24 0,79.85 23,13.49 46.14,26.75 69.26,40.02 34.61,-19.96 69.29,-39.81 103.76,-60 -0.03,13.33 -0.04,26.66 0.01,39.99 -34.46,20.21 -69.16,40.04 -103.76,60.02 -18.36,-10.43 -36.56,-21.12 -54.89,-31.59 -16.12,-9.52 -32.55,-18.56 -48.56,-28.23 -0.83,-4.25 -0.08,-8.8 -0.32,-13.16 -0.01,-31.31 -0.01,-62.63 0,-93.94 0.27,-4.36 -0.56,-8.97 0.36,-13.19 z"
     id="path16"
     inkscape:connector-curvature="0"
     style="fill:#020202" />
  <path
     d="m 345.96,79.71 c 11.72,6.72 23.43,13.44 35.08,20.26 -0.12,39.92 0.06,79.85 -0.09,119.77 22.91,13.58 46.14,26.62 69.11,40.09 23.13,-13.38 46.29,-26.72 69.43,-40.1 0,-39.96 0.04,-79.92 -0.01,-119.88 11.39,-6.93 23.16,-13.23 34.55,-20.17 -0.03,53.31 -0.07,106.61 0.02,159.92 -34.5,20.35 -69.37,40.13 -104.03,60.23 -34.62,-20.17 -69.41,-40.06 -104.06,-60.19 0.06,-53.31 0.06,-106.62 0,-159.93 z"
     id="path18"
     inkscape:connector-curvature="0"
     style="fill:#020202" />
  <path
     d="m 657.95,139.84 c 23.06,-13.37 46.14,-26.74 69.28,-39.98 23.13,13.26 46.21,26.6 69.27,40 0,26.62 0,53.25 0,79.88 -23.05,13.4 -46.14,26.73 -69.26,40 -23.15,-13.22 -46.22,-26.61 -69.29,-39.98 0.09,-26.64 0.09,-53.28 0,-79.92 z"
     id="path20"
     inkscape:connector-curvature="0"
     style="fill:#fefefe" />
  <path
     d="m 91.96,159.85 c 7.78,-0.11 15.56,-0.02 23.33,-0.05 3.64,6.74 7.89,13.18 11.31,20.03 -3.47,6.81 -7.66,13.25 -11.31,19.97 -7.78,-0.04 -15.56,0.07 -23.34,-0.06 -3.46,-6.81 -7.69,-13.19 -11.25,-19.94 3.57,-6.75 7.78,-13.15 11.26,-19.95 z"
     id="path22"
     inkscape:connector-curvature="0"
     style="fill:#020202" />
  <path
     d="m 705.01,178.3 c 3.43,-6.21 7.23,-12.21 10.53,-18.5 7.72,-0.01 15.45,0.03 23.17,-0.02 3.9,6.65 7.76,13.32 11.58,20.02 -3.83,6.7 -7.68,13.39 -11.59,20.03 -7.73,-0.07 -15.44,-0.01 -23.16,-0.03 -3.3,-6.3 -7.11,-12.31 -10.55,-18.53 -0.69,-0.99 -0.69,-1.98 0.02,-2.97 z"
     id="path24"
     inkscape:connector-curvature="0"
     style="fill:#020202" />
</svg>
