<?xml version="1.0" encoding="UTF-8" standalone="no"?>
<!-- Created with Inkscape (http://www.inkscape.org/) -->
<svg xmlns:dc="http://purl.org/dc/elements/1.1/" xmlns:cc="http://creativecommons.org/ns#" xmlns:rdf="http://www.w3.org/1999/02/22-rdf-syntax-ns#" xmlns:svg="http://www.w3.org/2000/svg" xmlns="http://www.w3.org/2000/svg" xmlns:sodipodi="http://sodipodi.sourceforge.net/DTD/sodipodi-0.dtd" xmlns:inkscape="http://www.inkscape.org/namespaces/inkscape" width="485.54782" height="705.11591" id="svg2" version="1.1" inkscape:version="0.48.5 r10040" sodipodi:docname="New document 1">
  <defs id="defs4"/>
  <sodipodi:namedview id="base" pagecolor="#ffffff" bordercolor="#666666" borderopacity="1.0" inkscape:pageopacity="0.0" inkscape:pageshadow="2" inkscape:zoom="0.49497475" inkscape:cx="1015.8723" inkscape:cy="287.71133" inkscape:document-units="px" inkscape:current-layer="layer1" showgrid="false" inkscape:window-width="1366" inkscape:window-height="702" inkscape:window-x="0" inkscape:window-y="27" inkscape:window-maximized="1" fit-margin-top="0" fit-margin-left="0" fit-margin-right="0" fit-margin-bottom="0"/>
  <metadata id="metadata7">
    <rdf:RDF>
      <cc:Work rdf:about="">
        <dc:format>image/svg+xml</dc:format>
        <dc:type rdf:resource="http://purl.org/dc/dcmitype/StillImage"/>
        <dc:title/>
      </cc:Work>
    </rdf:RDF>
  </metadata>
  <g inkscape:label="Layer 1" inkscape:groupmode="layer" id="layer1" transform="translate(-7.3825023,-8.8205428)">
    <path style="fill:#000000" d="m 243.25006,713.12761 c -4.4745,-1.63654 -7.1954,-5.4683 -7.8204,-11.01306 -0.6996,-6.20692 1.2336,-11.46123 5.0798,-13.80648 3.9036,-2.38026 12.5113,-2.56494 16.7753,-0.35992 7.3748,3.81364 7.7869,19.16685 0.6402,23.84957 -3.3081,2.16753 -10.5824,2.82675 -14.6749,1.32989 z M 43.544261,657.80083 c -4.0507,-1.99837 -5.8879,-5.58591 -5.8879,-11.49716 0,-8.79961 7.4976,-14.34605 16.2184,-11.99778 7.8286,2.10803 11.3303,10.23682 7.9229,18.39199 -2.5403,6.07965 -11.3063,8.5303 -18.2534,5.10295 z m 199.033099,0.16192 c -6.2541,-2.7232 -8.2367,-13.29749 -3.6551,-19.49444 1.0517,-1.42262 3.7847,-3.19178 6.0732,-3.93147 5.3449,-1.72757 11.5175,0.0392 14.5718,4.17088 2.6674,3.6083 2.7826,11.95584 0.2188,15.84919 -3.0016,4.55807 -10.9498,6.13114 -17.2087,3.40584 z m 200.79165,-0.0876 c -6.3895,-2.7761 -8.2471,-14.63436 -3.1435,-20.06689 5.2027,-5.53808 15.9303,-5.06512 20.34185,0.89683 2.4761,3.34639 2.8304,10.98884 0.6943,14.98004 -2.75085,5.13993 -11.16905,7.11128 -17.89265,4.19002 z M 42.079461,601.45865 c -2.5029,-2.50287 -2.9231,-3.69278 -2.9231,-8.27749 0,-6.41338 1.7007,-9.21553 6.5683,-10.82196 10.0185,-3.3064 18.0932,4.13862 15.3873,14.18738 -1.4196,5.27192 -5.0729,7.83515 -11.1674,7.83515 -4.1289,0 -5.423,-0.48093 -7.8651,-2.92308 z m 400.746249,0.87759 c -5.1874,-4.0804 -5.4372,-14.90237 -0.4251,-18.41302 5.1074,-3.57735 14.1621,-2.65494 17.2527,1.75754 0.88315,1.26085 1.50315,4.35447 1.50315,7.5004 0,4.58471 -0.4202,5.77462 -2.92315,8.27749 -2.4421,2.44215 -3.7362,2.92308 -7.8651,2.92308 -3.4645,0 -5.7195,-0.61155 -7.5425,-2.04549 z M 243.26646,575.98622 c -4.8513,-2.68885 -6.3325,-8.74321 -3.6876,-15.07325 1.958,-4.68612 7.835,-6.57219 13.922,-4.46784 3.5028,1.21096 4.3811,2.08928 5.5921,5.59209 1.9541,5.65237 0.2436,11.68287 -3.9253,13.83869 -3.5585,1.84016 -8.6943,1.88776 -11.9012,0.11031 z M 46.451161,549.27349 c -4.2478,-1.22685 -6.2948,-4.37832 -6.2948,-9.69119 0,-8.00624 7.704,-12.57073 15.3427,-9.0903 5.1423,2.343 6.4604,12.17753 2.2028,16.43518 -1.35,1.35 -3.1132,2.45455 -3.9183,2.45455 -0.805,0 -2.0629,0.18393 -2.7954,0.40874 -0.7325,0.22481 -2.7741,-0.008 -4.537,-0.51698 z m 198.999999,0 c -4.2478,-1.22685 -6.2948,-4.37832 -6.2948,-9.69119 0,-6.05902 4.0601,-10.20057 10,-10.20057 6.0584,0 10,4.12624 10,10.46853 0,3.57438 -0.5565,5.17888 -2.4545,7.07692 -1.3501,1.35 -3.1132,2.45455 -3.9183,2.45455 -0.805,0 -2.0629,0.18393 -2.7954,0.40874 -0.7325,0.22481 -2.7741,-0.008 -4.537,-0.51698 z m 201.00005,0 c -4.0984,-1.18371 -6.2948,-4.3474 -6.2948,-9.06721 0,-4.90183 1.6504,-8.34423 4.6573,-9.71428 7.7715,-3.5409 15.34275,1.07718 15.34275,9.35826 0,3.57438 -0.55655,5.17888 -2.45455,7.07692 -1.3501,1.35 -3.1132,2.45455 -3.9183,2.45455 -0.805,0 -2.0629,0.18393 -2.7954,0.40874 -0.7325,0.22481 -2.7741,-0.008 -4.537,-0.51698 z M 243.52096,522.21235 c -4.6983,-2.27497 -6.3912,-11.08869 -3.0959,-16.11793 3.8693,-5.90529 15.1314,-5.70722 18.2487,0.32094 4.2437,8.20648 -0.294,17.03003 -8.6905,16.89869 -2.3798,-0.0372 -5.2878,-0.53299 -6.4623,-1.1017 z m -27.0005,-1.00021 c -4.8752,-2.3606 -6.0291,-12.25631 -1.9096,-16.37586 1.9633,-1.96321 3.4737,-2.45455 7.5455,-2.45455 4.0718,0 5.5822,0.49134 7.5455,2.45455 4.2576,4.25765 2.9395,14.09218 -2.2028,16.43518 -2.983,1.35914 -8.1063,1.33146 -10.9786,-0.0593 z m 56,0 c -4.8752,-2.3606 -6.0291,-12.25631 -1.9096,-16.37586 1.9633,-1.96321 3.4737,-2.45455 7.5455,-2.45455 4.0718,0 5.5822,0.49134 7.5455,2.45455 4.2576,4.25765 2.9395,14.09218 -2.2028,16.43518 -2.983,1.35914 -8.1063,1.33146 -10.9786,-0.0593 z m -28.3641,-26.10906 c -1.375,-0.68705 -3.3026,-2.81791 -4.2835,-4.73526 -2.4256,-4.741 -1.5139,-9.66869 2.47,-13.3496 2.7695,-2.55893 3.6361,-2.81191 8.1475,-2.37842 6.3757,0.61263 9.666,3.92557 9.666,9.73259 0,5.897 -1.5698,8.93166 -5.4615,10.55771 -4.2366,1.77016 -7.2433,1.81951 -10.5385,0.17298 z m -56.6957,-1.67739 c -5.758,-3.51083 -5.7337,-13.59169 0.041,-17.11295 3.5769,-2.1811 6.0372,-2.39079 10.3619,-0.88317 3.8045,1.32624 5.7563,4.9402 5.551,10.27783 -0.3123,8.11567 -8.6707,12.15929 -15.9541,7.71829 z m 30.0527,1.01563 c -5.6526,-2.41608 -7.2849,-11.70673 -2.9436,-16.75383 2.0659,-2.40175 3.1583,-2.80576 7.5866,-2.80576 4.4283,0 5.5207,0.40401 7.5866,2.80576 3.2599,3.78982 3.3364,10.50962 0.1618,14.20031 -2.4769,2.8796 -8.6516,4.15203 -12.3914,2.55352 z m 56,0 c -5.6526,-2.41608 -7.2849,-11.70673 -2.9436,-16.75383 2.0659,-2.40175 3.1583,-2.80576 7.5866,-2.80576 4.4283,0 5.5207,0.40401 7.5866,2.80576 3.2599,3.78982 3.3364,10.50962 0.1618,14.20031 -2.4769,2.8796 -8.6516,4.15203 -12.3914,2.55352 z m 26.6099,-1.80959 c -5.4374,-4.87918 -4.0729,-14.97158 2.3257,-17.20216 4.3248,-1.50762 6.785,-1.29793 10.362,0.88317 5.7748,3.52126 5.7991,13.60212 0.041,17.11295 -4.582,2.79378 -9.0405,2.51568 -12.7288,-0.79396 z m -53.7107,-23.30676 c -4.3973,-0.9328 -6.062,-2.50827 -7.2287,-6.84126 -1.2525,-4.65131 0.2468,-10.48029 3.2339,-12.5725 1.2317,-0.86271 4.2999,-1.52948 7.038,-1.52948 6.5281,0 10.7006,3.85101 10.7006,9.87602 0,8.69768 -5.1948,12.88076 -13.7438,11.06722 z M 46.451161,468.2642 c -4.2094,-1.20356 -6.2948,-4.35849 -6.2948,-9.52319 0,-5.60034 0.7138,-7.1599 4.0715,-8.89627 10.2073,-5.2784 19.7267,4.29134 14.4395,14.51578 -1.343,2.59703 -2.8641,3.50834 -7.511,4.50001 -0.825,0.17606 -2.9423,-0.0923 -4.7052,-0.59633 z m 142.967799,0.0122 c -6.6548,-1.9432 -8.3633,-12.83081 -2.7687,-17.64311 2.9662,-2.55138 8.5124,-2.9767 12.5061,-0.95904 5.0336,2.54307 5.7964,12.93121 1.2444,16.94628 -2.3696,2.09007 -7.0684,2.79858 -10.9818,1.65587 z m 114.2374,0.38609 c -5.3012,-1.29146 -8.2206,-7.93377 -6.1944,-14.09374 1.3752,-4.18106 4.5311,-6.1509 9.8886,-6.17228 11.0138,-0.0439 13.6249,16.99749 3.0542,19.93312 -2.0616,0.57254 -3.9734,0.9913 -4.2484,0.93056 -0.275,-0.0607 -1.4,-0.32968 -2.5,-0.59766 z m 142.76265,-0.39735 c -2.0103,-0.58002 -3.8108,-2.04279 -4.75,-3.85908 -5.3092,-10.26692 4.1817,-19.85361 14.4159,-14.56132 3.3904,1.75328 4.07155,3.28621 4.07155,9.16423 0,3.40587 -0.58175,5.04535 -2.45455,6.91821 -1.35,1.35 -3.1132,2.45455 -3.9183,2.45455 -0.805,0 -2.0629,0.18393 -2.7954,0.40874 -0.7325,0.22481 -2.7886,-0.0116 -4.5692,-0.52533 z M 42.610861,438.92718 c -1.9632,-1.9632 -2.4545,-3.47362 -2.4545,-7.54545 0,-6.85533 2.9474,-10 9.3728,-10 5.878,0 7.4109,0.68106 9.1642,4.07152 4.0965,7.92174 -0.4303,15.92848 -9.0055,15.92848 -3.5744,0 -5.1789,-0.5565 -7.077,-2.45455 z m 116.201799,1.32202 c -2.7739,-1.61244 -4.8354,-7.39568 -4.0771,-11.4377 0.9045,-4.8215 4.5489,-7.42977 10.3813,-7.42977 6.5492,0 9.5395,3.18709 9.5395,10.16715 0,4.24512 -0.4265,5.37285 -2.8058,7.41943 -3.0521,2.62531 -9.6157,3.27014 -13.0379,1.28089 z m 28.0157,-0.9108 c -1.4827,-1.16632 -2.8754,-3.52413 -3.2449,-5.49343 -1.4417,-7.68478 2.2156,-12.46324 9.539,-12.46324 5.6444,0 8.6599,1.98598 9.9144,6.52948 1.2223,4.42658 -0.2156,9.89142 -3.1419,11.94104 -3.168,2.21895 -9.9304,1.95301 -13.0666,-0.51385 z m 29.6921,0.87374 c -4.8752,-2.3606 -6.0291,-12.25631 -1.9096,-16.37586 1.9633,-1.96321 3.4737,-2.45455 7.5455,-2.45455 4.0718,0 5.5822,0.49134 7.5455,2.45455 4.2576,4.25765 2.9395,14.09218 -2.2028,16.43518 -2.983,1.35914 -8.1063,1.33146 -10.9786,-0.0593 z m 26.3079,-0.87374 c -1.4827,-1.16632 -2.8754,-3.52413 -3.2449,-5.49343 -1.4417,-7.68478 2.2156,-12.46324 9.539,-12.46324 5.6444,0 8.6599,1.98598 9.9144,6.52948 1.2223,4.42658 -0.2156,9.89142 -3.1419,11.94104 -3.168,2.21895 -9.9304,1.95301 -13.0666,-0.51385 z m 29.6921,0.87374 c -4.8752,-2.3606 -6.0291,-12.25631 -1.9096,-16.37586 1.9633,-1.96321 3.4737,-2.45455 7.5455,-2.45455 4.0718,0 5.5822,0.49134 7.5455,2.45455 4.2576,4.25765 2.9395,14.09218 -2.2028,16.43518 -2.983,1.35914 -8.1063,1.33146 -10.9786,-0.0593 z m 27.8973,-0.35989 c -2.9263,-2.04962 -4.3642,-7.51446 -3.1419,-11.94104 1.2545,-4.5435 4.27,-6.52948 9.9144,-6.52948 7.3234,0 10.9806,4.77846 9.539,12.46324 -0.8698,4.63649 -4.7123,7.53676 -9.9853,7.53676 -2.2784,0 -5.1252,-0.68827 -6.3262,-1.52948 z m 28.0444,-0.88394 c -2.3793,-2.04658 -2.8058,-3.17431 -2.8058,-7.41943 0,-6.98006 2.9903,-10.16715 9.5395,-10.16715 5.8324,0 9.4768,2.60827 10.3813,7.42977 0.7818,4.16726 -1.361,9.9327 -4.2704,11.48974 -3.627,1.94113 -9.7807,1.30254 -12.8446,-1.33293 z m 114.61735,-0.50966 c -3.3414,-3.34143 -3.8973,-8.29239 -1.4601,-13.0054 1.7533,-3.39046 3.2862,-4.07152 9.1642,-4.07152 6.4254,0 9.37285,3.14467 9.37285,10 0,6.92073 -2.93505,10 -9.53155,10 -3.7756,0 -5.1578,-0.53547 -7.5454,-2.92308 z M 16.513361,414.44132 c -5.6526,-2.41608 -7.2849,-11.70673 -2.9436,-16.75383 2.0659,-2.40175 3.1583,-2.80576 7.5866,-2.80576 4.4283,0 5.5207,0.40401 7.5866,2.80576 3.2598,3.78982 3.3364,10.50962 0.1618,14.20031 -2.4769,2.8796 -8.6516,4.15203 -12.3914,2.55352 z m 26.847,-1.54142 c -2.8542,-2.40165 -3.204,-3.26764 -3.204,-7.93275 0,-6.32324 2.6807,-9.48981 8.6517,-10.21991 7.6416,-0.93438 12.4696,4.84372 10.9254,13.07538 -0.8265,4.40536 -3.6027,6.69495 -8.8326,7.28444 -3.6564,0.41213 -4.8391,0.0659 -7.5405,-2.20716 z m 29.5823,0.92886 c -3.8966,-2.11487 -5.561,-8.11927 -3.6491,-13.16382 3.0833,-8.13523 15.631,-8.11507 18.731,0.0301 3.7755,9.91982 -5.7385,18.2049 -15.0819,13.13371 z m 58.570699,0.61256 c -5.6526,-2.41608 -7.2849,-11.70673 -2.9436,-16.75383 2.0659,-2.40175 3.1583,-2.80576 7.5866,-2.80576 4.4283,0 5.5207,0.40401 7.5866,2.80576 3.2599,3.78982 3.3364,10.50962 0.1618,14.20031 -2.4769,2.8796 -8.6516,4.15203 -12.3914,2.55352 z m 27.4279,-0.6133 c -3.7612,-2.04135 -5.465,-8.37241 -3.5836,-13.31568 2.7449,-7.21207 14.7658,-7.96244 18.2929,-1.14187 5.2125,10.07984 -4.7442,19.8661 -14.7093,14.45755 z m 29.2348,0.26926 c -6.8726,-3.47738 -6.6549,-15.01439 0.3463,-18.35306 7.1066,-3.38886 14.7938,0.95597 14.9909,8.47284 0.057,2.16499 -0.4997,5.06302 -1.2367,6.44006 -2.368,4.42461 -8.971,6.03557 -14.1005,3.44016 z m 29.3373,0.34404 c -5.6526,-2.41608 -7.2849,-11.70673 -2.9436,-16.75383 2.0659,-2.40175 3.1583,-2.80576 7.5866,-2.80576 4.4283,0 5.5207,0.40401 7.5866,2.80576 3.2599,3.78982 3.3364,10.50962 0.1618,14.20031 -2.4769,2.8796 -8.6516,4.15203 -12.3914,2.55352 z m 26.6627,-0.34404 c -6.8726,-3.47738 -6.6549,-15.01439 0.3463,-18.35306 4.3074,-2.05406 9.494,-1.20488 12.5574,2.05598 2.5793,2.74551 3.0994,9.97098 0.9638,13.3905 -2.496,3.9968 -9.0131,5.36276 -13.8675,2.90658 z m 29.3373,0.34404 c -5.6526,-2.41608 -7.2849,-11.70673 -2.9436,-16.75383 2.0659,-2.40175 3.1583,-2.80576 7.5866,-2.80576 4.4283,0 5.5207,0.40401 7.5866,2.80576 3.2599,3.78982 3.3364,10.50962 0.1618,14.20031 -2.4769,2.8796 -8.6516,4.15203 -12.3914,2.55352 z m 28.0076,-0.17421 c -5.0972,-2.59885 -6.4389,-12.04845 -2.3315,-16.42058 4.7736,-5.08131 14.7502,-3.74921 17.0747,2.27986 1.446,3.75064 0.4679,10.12413 -1.9203,12.5123 -2.3014,2.30139 -9.6682,3.23692 -12.8229,1.62842 z m 28.7455,-0.28089 c -7.6178,-4.2222 -6.4225,-16.23218 1.8625,-18.71443 8.9324,-2.6762 15.52,3.85311 13.0695,12.95377 -1.7024,6.32191 -8.9056,9.10087 -14.932,5.76066 z m 29.2469,0.4551 c -5.6526,-2.41608 -7.2849,-11.70673 -2.9436,-16.75383 2.0659,-2.40175 3.1583,-2.80576 7.5866,-2.80576 4.4283,0 5.5207,0.40401 7.5866,2.80576 3.2599,3.78982 3.3364,10.50962 0.1618,14.20031 -2.4769,2.8796 -8.6516,4.15203 -12.3914,2.55352 z m 56.42935,-0.61256 c -3.8966,-2.11487 -5.561,-8.11927 -3.6491,-13.16382 3.0833,-8.13523 15.631,-8.11507 18.731,0.0301 3.7755,9.91982 -5.7385,18.2049 -15.0819,13.13371 z m 29.2334,0.26852 c -6.7412,-3.41091 -6.684,-14.76931 0.092,-18.27338 3.9956,-2.0662 9.292,-1.35085 12.5316,1.69254 1.8936,1.77897 2.35665,3.24274 2.35665,7.45071 0,4.62005 -0.36245,5.54169 -3.07675,7.82569 -3.3928,2.85484 -7.8698,3.34545 -11.9036,1.30444 z m 29.33735,0.34404 c -5.6526,-2.41608 -7.2849,-11.70673 -2.9436,-16.75383 2.0659,-2.40175 3.1583,-2.80576 7.5866,-2.80576 4.4283,0 5.5207,0.40401 7.5866,2.80576 3.2599,3.78982 3.3364,10.50962 0.1618,14.20031 -2.4769,2.8796 -8.6516,4.15203 -12.3914,2.55352 z M 17.656361,388.69608 c -5.6587,-1.45432 -8.662498,-8.26183 -6.5158,-14.76656 1.5502,-4.69707 5.7824,-6.94691 11.7935,-6.26938 5.926,0.66795 8.3754,3.25949 8.9746,9.49533 0.4216,4.3883 0.1546,5.28711 -2.3888,8.03979 -2.8917,3.12972 -7.7403,4.5605 -11.8635,3.50082 z m 26.8287,-0.77211 c -4.0273,-1.75186 -5.4954,-4.52034 -5.4954,-10.36315 0,-3.92729 0.4766,-5.06681 3.0991,-7.41004 7.0587,-6.30686 18.0676,-1.9175 18.0676,7.20369 0,6.03616 -2.2732,9.73141 -6.7516,10.97512 -4.6783,1.29922 -5.038,1.28286 -8.9197,-0.40562 z m 29.9661,0.35059 c -4.3714,-1.26402 -6.2948,-4.37825 -6.2948,-10.19226 0,-4.03207 0.4952,-5.34959 2.9231,-7.77749 2.3933,-2.39331 3.7665,-2.92308 7.5769,-2.92308 3.8104,0 5.1836,0.52977 7.5769,2.92308 2.4279,2.4279 2.9231,3.74542 2.9231,7.77749 0,6.00091 -1.9201,8.90542 -6.7795,10.25499 -2.0463,0.56831 -3.9455,0.99521 -4.2205,0.94867 -0.275,-0.0465 -1.9423,-0.50166 -3.7052,-1.0114 z m 57.989299,0.4403 c -1.2187,-0.25481 -3.4046,-1.87606 -4.8575,-3.60278 -2.2725,-2.70063 -2.5762,-3.82149 -2.1729,-8.01837 0.5928,-6.16991 3.0627,-8.76789 8.9686,-9.43357 6.2829,-0.70818 10.3582,1.58956 11.8906,6.70418 2.7238,9.09112 -4.2702,16.34901 -13.8288,14.35054 z m 28.0107,-0.4403 c -4.3714,-1.26402 -6.2948,-4.37825 -6.2948,-10.19226 0,-4.03207 0.4952,-5.34959 2.9231,-7.77749 3.9758,-3.97587 10.4995,-4.12121 15.0002,-0.33419 2.6767,2.2523 3.0767,3.23596 3.0767,7.56575 0,6.25779 -1.2681,8.64161 -5.5484,10.43002 -3.8076,1.59094 -4.6253,1.61846 -9.1568,0.30817 z m 58.0795,0.44726 c -9.4767,-1.99108 -9.4128,-19.11664 0.078,-20.89712 9.3103,-1.74663 15.0818,2.89292 14.2121,11.42473 -0.7141,7.00505 -6.808,11.04442 -14.2902,9.47239 z m 25.9544,-0.79785 c -3.8057,-1.65548 -5.5609,-4.61912 -5.6917,-9.61081 -0.189,-7.20561 3.7262,-10.93143 11.487,-10.93143 5.7042,0 9.876,4.21271 9.876,9.97274 0,6.03616 -2.2732,9.73141 -6.7516,10.97512 -4.6783,1.29922 -5.038,1.28286 -8.9197,-0.40562 z m 30.0456,0.79785 c -9.4767,-1.99108 -9.4128,-19.11664 0.078,-20.89712 9.3103,-1.74663 15.0818,2.89292 14.2121,11.42473 -0.7141,7.00505 -6.808,11.04442 -14.2902,9.47239 z m 55.9544,-0.79785 c -4.0728,-1.77165 -5.3287,-4.21989 -5.3287,-10.3876 0,-4.32979 0.4,-5.31345 3.0767,-7.56575 4.5007,-3.78702 11.0244,-3.64168 15.0002,0.33419 2.4279,2.4279 2.9231,3.74542 2.9231,7.77749 0,6.00091 -1.9201,8.90542 -6.7795,10.25499 -4.648,1.29087 -5.013,1.2739 -8.8918,-0.41332 z m 29.6919,0.37426 c -5.9505,-2.45225 -8.2011,-7.80948 -6.0364,-14.36871 1.5502,-4.69707 5.7825,-6.94691 11.7935,-6.26938 5.926,0.66795 8.3754,3.25949 8.9746,9.49533 0.4216,4.3883 0.1546,5.28711 -2.3888,8.03979 -3.1876,3.44995 -8.3511,4.74803 -12.3429,3.10297 z m 57.27425,-0.0237 c -4.3714,-1.26399 -6.2948,-4.37822 -6.2948,-10.19223 0,-4.03207 0.4952,-5.34959 2.9231,-7.77749 2.3933,-2.39331 3.7665,-2.92308 7.5769,-2.92308 3.8104,0 5.1836,0.52977 7.5769,2.92308 2.4279,2.4279 2.9231,3.74542 2.9231,7.77749 0,6.00091 -1.9201,8.90542 -6.7795,10.25499 -2.0463,0.56831 -3.9455,0.99521 -4.2205,0.94867 -0.275,-0.0465 -1.9423,-0.50166 -3.7052,-1.0114 z m 28.9678,-0.008 c -3.9413,-1.13877 -6.2626,-5.18337 -6.2626,-10.91206 0,-9.12119 11.0089,-13.51055 18.0676,-7.20369 2.62255,2.34323 3.09915,3.48275 3.09915,7.41004 0,5.93531 -1.48435,8.63786 -5.71515,10.40557 -3.8119,1.59271 -4.6216,1.61913 -9.189,0.29982 z m 29.02155,0.4438 c -1.2187,-0.25214 -3.4046,-1.87121 -4.8575,-3.59793 -2.2725,-2.70063 -2.5762,-3.82149 -2.1729,-8.01837 0.5928,-6.16991 3.0627,-8.76789 8.9686,-9.43357 6.011,-0.67753 10.2433,1.57231 11.7935,6.26938 3.0857,9.34998 -3.8573,16.82336 -13.7317,14.78049 z M 17.942261,362.66379 c -4.4523,-0.66927 -7.7859,-5.56549 -7.7859,-11.43571 0,-4.1932 0.4718,-5.47196 2.9231,-7.92327 2.5144,-2.51441 3.6837,-2.92308 8.3636,-2.92308 4.4781,0 5.8853,0.44476 7.9548,2.5142 4.5505,4.55057 4.5505,12.42103 0,16.9716 -1.3828,1.38281 -3.3161,2.5142 -4.2961,2.5142 -0.98,0 -2.3811,0.15526 -3.1136,0.34502 -0.7325,0.18975 -2.5531,0.16142 -4.0459,-0.063 z m 56.6328,-0.34695 c -5.1634,-1.51629 -6.9187,-4.33926 -6.9187,-11.12668 0,-5.31409 0.3131,-6.25092 2.8058,-8.39501 3.9136,-3.36635 12.3956,-3.43449 16.2368,-0.13042 3.0441,2.61842 4.3149,9.44832 2.5891,13.9147 -1.8719,4.8444 -8.6945,7.50487 -14.713,5.73741 z m 28.894199,-0.0774 c -4.765899,-1.31936 -7.312899,-5.17475 -7.312899,-11.06949 0,-4.12895 0.4809,-5.423 2.9231,-7.86514 2.537599,-2.53757 3.664599,-2.92308 8.545399,-2.92308 4.5938,0 6.0594,0.43695 8.0107,2.38827 4.5754,4.5754 4.1036,14.96668 -0.8184,18.0253 -3.0489,1.8946 -7.6195,2.47627 -11.3479,1.44414 z m 29.7604,0.40918 c -4.1612,-0.77559 -7.0152,-3.33744 -8.0662,-7.24046 -1.3309,-4.94254 -0.3478,-9.41297 2.7514,-12.51223 2.0695,-2.06944 3.4767,-2.5142 7.9548,-2.5142 4.6799,0 5.8492,0.40867 8.3636,2.92308 2.4746,2.47455 2.9231,3.7139 2.9231,8.07692 0,4.36302 -0.4485,5.60237 -2.9231,8.07692 -1.6077,1.6077 -3.5959,2.92308 -4.4182,2.92308 -0.8223,0 -2.0944,0.16182 -2.8269,0.35959 -0.7325,0.19777 -2.4238,0.15606 -3.7585,-0.0927 z m 28.3454,-0.33178 c -5.1634,-1.51629 -6.9187,-4.33926 -6.9187,-11.12668 0,-5.31409 0.3131,-6.25092 2.8058,-8.39501 3.9136,-3.36635 12.3956,-3.43449 16.2368,-0.13042 3.0441,2.61842 4.3149,9.44832 2.5891,13.9147 -1.8719,4.8444 -8.6945,7.50487 -14.713,5.73741 z m 57.4087,0.33023 c -1.4699,-0.21079 -3.8324,-1.54308 -5.25,-2.96066 -2.1686,-2.16866 -2.5724,-3.46767 -2.5456,-8.19104 0.047,-8.29162 3.0347,-11.11364 11.7661,-11.11364 7.7169,0 10.9806,4.10718 10.3303,13 -0.4943,6.75957 -6.163,10.43228 -14.3008,9.26534 z m 26.4855,-0.40763 c -4.7659,-1.31936 -7.3129,-5.17475 -7.3129,-11.06949 0,-4.12895 0.4809,-5.423 2.9231,-7.86514 2.5376,-2.53757 3.6646,-2.92308 8.5454,-2.92308 4.5938,0 6.0594,0.43695 8.0107,2.38827 4.5754,4.5754 4.1036,14.96668 -0.8184,18.0253 -3.0489,1.8946 -7.6195,2.47627 -11.3479,1.44414 z m 29.5145,0.42835 c -8.0228,-1.21266 -11.215,-13.6257 -5.0815,-19.75926 2.019,-2.01893 3.5176,-2.5268 7.4562,-2.5268 8.7314,0 11.7191,2.82202 11.7661,11.11364 0.027,4.75548 -0.3712,6.01665 -2.6046,8.25 -1.45,1.45 -3.4382,2.63636 -4.4182,2.63636 -0.98,0 -2.3811,0.15526 -3.1136,0.34502 -0.7325,0.18975 -2.5345,0.16323 -4.0044,-0.059 z m 55.5913,-0.35095 c -5.1634,-1.51629 -6.9187,-4.33926 -6.9187,-11.12668 0,-5.31409 0.3131,-6.25092 2.8058,-8.39501 3.9136,-3.36635 12.3956,-3.43449 16.2368,-0.13042 3.0441,2.61842 4.3149,9.44832 2.5891,13.9147 -1.8719,4.8444 -8.6945,7.50487 -14.713,5.73741 z m 29.8942,-0.0774 c -4.7659,-1.31936 -7.3129,-5.17475 -7.3129,-11.06949 0,-4.12895 0.4809,-5.423 2.9231,-7.86514 2.5144,-2.51441 3.6837,-2.92308 8.3636,-2.92308 4.4781,0 5.8853,0.44476 7.9548,2.5142 3.0992,3.09926 4.0823,7.56969 2.7514,12.51223 -1.5593,5.79089 -7.8551,8.72062 -14.68,6.83128 z m 28.9433,0.16558 c -4.3159,-1.02203 -5.9257,-2.49174 -7.3041,-6.66846 -1.4994,-4.54307 -0.4234,-9.97446 2.5687,-12.96656 1.9513,-1.95132 3.4169,-2.38827 8.0107,-2.38827 4.8808,0 6.0079,0.38551 8.5454,2.92308 2.47465,2.47455 2.92315,3.7139 2.92315,8.07692 0,4.36302 -0.4485,5.60237 -2.92315,8.07692 -1.6077,1.6077 -3.5959,2.92308 -4.4182,2.92308 -0.8223,0 -2.0944,0.17808 -2.8269,0.39573 -0.7325,0.21765 -2.7915,0.05 -4.5756,-0.37244 z m 28.16255,-0.0882 c -5.1634,-1.51627 -6.9187,-4.33924 -6.9187,-11.12666 0,-5.31409 0.3131,-6.25092 2.8058,-8.39501 3.9136,-3.36635 12.3956,-3.43449 16.2368,-0.13042 3.0441,2.61842 4.3149,9.44832 2.5891,13.9147 -1.8719,4.8444 -8.6945,7.50487 -14.713,5.73741 z m 58.40875,0.31622 c -8.1849,-1.13079 -11.3502,-13.4558 -5.0689,-19.73713 2.0695,-2.06944 3.4767,-2.5142 7.9548,-2.5142 4.6799,0 5.8492,0.40867 8.3636,2.92308 2.4607,2.4607 2.9231,3.72365 2.9231,7.98422 0,8.11477 -5.5267,12.53849 -14.1726,11.34403 z M 12.842861,333.96696 c -3.1275,-2.8984 -4.119098,-6.32298 -3.3948,-11.72325 0.664,-4.95087 2.9003,-7.53962 7.7746,-9 8.6651,-2.59612 15.9337,2.31438 15.9337,10.76441 0,5.04275 -2.0778,9.80971 -4.9446,11.34397 -1.0582,0.5663 -4.3628,1.02964 -7.3436,1.02964 -4.344,0 -5.9369,-0.47928 -8.0253,-2.41477 z m 28.2366,-0.50831 c -2.5222,-2.52217 -2.9231,-3.67744 -2.9231,-8.42327 0,-6.76975 3.1411,-11.21429 8.6567,-12.24903 11.1215,-2.0864 18.6668,7.78931 13.7951,18.05569 -1.9141,4.03379 -5.0609,5.53969 -11.5758,5.53969 -4.226,0 -5.497,-0.46717 -7.9529,-2.92308 z m 29.7358,0.86943 c -5.5009,-4.32704 -5.6353,-15.95002 -0.2254,-19.49473 5.4733,-3.58623 14.9293,-2.59919 17.8534,1.86357 3.7525,5.72693 2.8332,13.87197 -1.9941,17.66917 -3.5728,2.81032 -12.039,2.78974 -15.6339,-0.038 z m 29.197199,0.53725 c -4.825499,-2.62146 -6.332699,-11.54958 -2.900199,-17.17913 3.828999,-6.27968 14.646599,-6.94246 19.483799,-1.19374 2.0679,2.45758 2.5603,4.10046 2.5603,8.54292 0,4.74583 -0.4009,5.9011 -2.9231,8.42327 -2.5145,2.51453 -3.6676,2.91748 -8.25,2.88304 -2.9298,-0.022 -6.5167,-0.68638 -7.9708,-1.47636 z m 27.5244,-0.83274 c -2.272,-1.95426 -2.8034,-3.3491 -3.1613,-8.29782 -0.3847,-5.31732 -0.1474,-6.28492 2.2355,-9.11685 3.1608,-3.75641 8.0872,-4.98963 13.479,-3.37421 4.8743,1.46038 7.1106,4.04913 7.7746,9 0.7243,5.40027 -0.2673,8.82485 -3.3948,11.72325 -3.7135,3.44156 -12.9666,3.47742 -16.933,0.0656 z m 28.5426,-0.57394 c -2.4559,-2.45591 -2.9231,-3.72695 -2.9231,-7.95294 0,-6.51489 1.5059,-9.66163 5.5397,-11.57579 9.9362,-4.71502 19.5688,2.14928 18.125,12.91605 -0.8311,6.19719 -5.1225,9.53576 -12.2574,9.53576 -4.8132,0 -5.9543,-0.39314 -8.4842,-2.92308 z m 29.0309,0.17308 c -3.8525,-3.44258 -4.8652,-9.13342 -2.5929,-14.57175 3.0712,-7.35056 14.3718,-8.89841 19.8889,-2.72422 2.3014,2.5755 2.75,3.9847 2.75,8.63867 0,4.8132 -0.3931,5.95429 -2.9231,8.48422 -2.5299,2.52994 -3.671,2.92308 -8.4842,2.92308 -4.654,0 -6.0632,-0.4486 -8.6387,-2.75 z m 29.796,1.66989 c -4.0736,-2.37261 -5.9689,-10.58383 -3.7749,-16.35433 1.2812,-3.36982 6.641,-6.55808 11.0249,-6.55808 4.3839,0 9.7437,3.18826 11.0249,6.55808 2.2433,5.90028 0.2476,14.14786 -3.9695,16.4048 -2.4602,1.31665 -12.0161,1.28294 -14.3054,-0.0505 z m 25.9365,-1.33466 c -3.1275,-2.8984 -4.1191,-6.32298 -3.3948,-11.72325 0.664,-4.95087 2.9003,-7.53962 7.7746,-9 5.3918,-1.61542 10.3182,-0.3822 13.479,3.37421 2.3829,2.83193 2.6202,3.79953 2.2355,9.11685 -0.585,8.08832 -3.3944,10.64696 -11.6905,10.64696 -4.7442,0 -6.2719,-0.43897 -8.4038,-2.41477 z m 30.0635,1.33466 c -4.0736,-2.37261 -5.9689,-10.58383 -3.7749,-16.35433 1.2812,-3.36982 6.641,-6.55808 11.0249,-6.55808 4.3839,0 9.7437,3.18826 11.0249,6.55808 2.2433,5.90028 0.2476,14.14786 -3.9695,16.4048 -2.4602,1.31665 -12.0161,1.28294 -14.3054,-0.0505 z m 27.1731,-1.84297 c -2.53,-2.52993 -2.9231,-3.67102 -2.9231,-8.48422 0,-4.65397 0.4486,-6.06317 2.75,-8.63867 5.5171,-6.17419 16.8177,-4.62634 19.8889,2.72422 2.2723,5.43833 1.2596,11.12917 -2.5929,14.57175 -2.5755,2.3014 -3.9847,2.75 -8.6387,2.75 -4.8132,0 -5.9543,-0.39314 -8.4842,-2.92308 z m 29.0309,0.17308 c -6.0564,-5.41192 -4.6282,-16.81689 2.4779,-19.78599 4.4923,-1.87699 7.9465,-1.85282 12.0284,0.0842 4.0338,1.91416 5.5397,5.0609 5.5397,11.57579 0,4.22599 -0.4672,5.49703 -2.9231,7.95294 -2.5299,2.52992 -3.671,2.92306 -8.4842,2.92306 -4.654,0 -6.0632,-0.4486 -8.6387,-2.75 z m 28.7325,0.33523 c -3.1275,-2.8984 -4.1191,-6.32298 -3.3948,-11.72325 0.664,-4.95087 2.9003,-7.53962 7.7746,-9 5.3918,-1.61542 10.3182,-0.3822 13.479,3.37421 2.3829,2.83193 2.6202,3.79953 2.2355,9.11685 -0.585,8.08832 -3.3944,10.64696 -11.6905,10.64696 -4.7442,0 -6.2719,-0.43897 -8.4038,-2.41477 z m 28.2366,-0.50831 c -2.5222,-2.52217 -2.9231,-3.67744 -2.9231,-8.42327 0,-6.76975 3.1411,-11.21429 8.6567,-12.24903 10.8349,-2.03263 17.97855,6.73773 14.23495,17.47654 -1.4171,4.06504 -5.41775,6.11884 -11.91895,6.11884 -4.3328,0 -5.5791,-0.45255 -8.0496,-2.92308 z m 29.78415,0.90744 c -4.8273,-3.7972 -5.7466,-11.94224 -1.9941,-17.66917 2.9241,-4.46276 12.3801,-5.4498 17.8534,-1.86357 5.4099,3.54471 5.2755,15.16769 -0.2254,19.49473 -3.5949,2.82775 -12.0611,2.84833 -15.6339,0.038 z m 29.5953,0.8186 c -4.9807,-2.40645 -6.7878,-11.85479 -3.3466,-17.49849 3.829,-6.27968 14.6466,-6.94246 19.4838,-1.19374 2.06795,2.45758 2.56035,4.10046 2.56035,8.54292 0,4.74583 -0.4009,5.9011 -2.92315,8.42327 -2.525,2.52503 -3.6485,2.91386 -8.25,2.8554 -2.9298,-0.0372 -6.3157,-0.54544 -7.5244,-1.12936 z m 28.44755,0.11693 c -2.7304,-1.59027 -4.75,-6.39216 -4.75,-11.2935 0,-8.45003 7.2686,-13.36053 15.9337,-10.76441 4.8743,1.46038 7.1106,4.04913 7.7746,9 0.7243,5.40027 -0.2673,8.82485 -3.3948,11.72325 -2.1221,1.96674 -3.6453,2.40913 -8.2095,2.38436 -3.0822,-0.0167 -6.3915,-0.48909 -7.354,-1.0497 z M 14.464661,309.37213 c -2.9847,-1.20225 -5.1002,-4.69627 -5.746098,-9.4904 -0.8063,-5.9851 1.236198,-10.55126 5.883998,-13.15378 3.9318,-2.20166 3.9367,-2.21202 1.3448,-2.86254 -4.8309,-1.21247 -7.157898,-4.88143 -7.611198,-12.00048 -0.4002,-6.28468 -0.3185,-6.54451 3.145498,-10.00849 l 3.5563,-3.5563 -3.5949,-3.29445 c -3.114798,-2.85456 -3.648398,-4.01743 -3.996098,-8.7092 -0.7585,-10.23394 5.232498,-16.45439 15.033898,-15.60977 5.6216,0.48443 9.5974,3.05353 11.5961,7.49337 l 1.4205,3.15557 1.6956,-3.78725 c 1.0735,-2.39764 2.929,-4.38456 5.057,-5.4152 l 3.3614,-1.62796 -2.7271,-1.03684 c -3.9962,-1.51934 -6.7226,-6.634 -6.7095,-12.58668 0.013,-6.03668 1.5075,-9.26395 5.5508,-11.98871 l 3.0401,-2.04875 -3.0261,-1.98322 c -3.9845,-2.61128 -5.5506,-5.92395 -5.5686,-11.77898 -0.018,-5.97953 2.0859,-10.18387 6.1483,-12.28463 l 3.1291,-1.61814 -2.9474,-1.42747 c -4.1705,-2.01987 -6.3447,-6.243 -6.3447,-12.32405 0,-6.37765 1.9343,-10.28013 6.0942,-12.29479 l 3.1979,-1.54883 -3.1291,-1.61814 c -4.5811,-2.36895 -6.4664,-6.71335 -5.9588,-13.73093 0.3142,-4.34373 1.0153,-6.45812 2.7557,-8.31064 5.1589,-5.49141 15.9354,-5.80127 21.1291,-0.60753 5.5379,5.53786 5.0605,15.32974 -1.0299,21.12335 l -3.7598,3.57667 2.8919,1.65973 c 7.595,4.35894 7.5266,18.86539 -0.1109,23.51001 l -3.04,1.84874 3.0718,2.27107 c 7.7741,5.74765 7.6776,19.19186 -0.1721,23.96553 l -3.1803,1.93407 2.9055,1.50251 c 3.9523,2.04382 5.8348,5.97126 5.8348,12.17313 0,6.20187 -1.8825,10.12931 -5.8348,12.17313 l -2.9055,1.50251 2.8701,1.74903 c 2.6952,1.6424 4.2174,3.85374 5.9028,8.57533 0.6622,1.85512 0.7674,1.81467 1.4529,-0.5584 1.9042,-6.59181 6.4578,-9.9416 13.5145,-9.9416 8.6792,0 13.7857,5.38052 13.7857,14.52541 0,6.041 -1.376,8.95075 -5.3858,11.38929 l -2.9725,1.80769 2.6198,1.71658 c 4.9972,3.27427 6.7911,11.42238 3.9904,18.12519 -1.0522,2.51838 -2.6648,4.04567 -5.75,5.44592 -2.3582,1.0703 -3.4551,1.95588 -2.4376,1.96796 1.0175,0.0121 3.38,1.55196 5.25,3.42196 2.9942,2.99415 3.4,4.0202 3.4,8.59571 0,9.00644 -3.8726,13.00429 -12.5967,13.00429 -8.7274,0 -12.4033,-3.89635 -12.4033,-13.14705 0,-4.41316 0.4305,-5.48345 3.4,-8.45295 1.87,-1.87 4.2325,-3.40988 5.25,-3.42196 1.0175,-0.0121 -0.079,-0.89766 -2.4376,-1.96796 -3.0852,-1.40025 -4.6978,-2.92754 -5.75,-5.44592 -2.8007,-6.70281 -1.0068,-14.85092 3.9904,-18.12519 l 2.6198,-1.71658 -2.9272,-1.78014 c -3.4423,-2.09341 -4.2239,-3.20643 -5.1647,-7.35496 -0.6108,-2.69303 -0.7923,-2.83188 -1.4218,-1.08729 -1.9903,5.51626 -2.7667,6.65615 -5.7885,8.49856 -3.9972,2.43708 -11.6237,2.6458 -15.8986,0.43512 -1.7599,-0.91004 -3.7601,-3.19933 -4.7739,-5.46378 l -1.745,-3.89747 -1.6735,3.79326 c -0.9205,2.08629 -2.7999,4.39604 -4.1765,5.13276 -3.027,1.62001 -3.1722,2.65435 -0.4919,3.50503 2.9558,0.93815 5.1843,6.06193 5.1398,11.81724 -0.045,5.76734 -2.1169,9.32198 -6.844,11.73989 l -3.051,1.56062 3.6221,1.93938 c 6.9111,3.70042 8.0437,14.67168 2.1255,20.58985 -2.4436,2.44354 -3.6085,2.84051 -8.1765,2.78615 -2.9298,-0.0349 -6.3132,-0.46065 -7.5186,-0.94621 z m 26.5537,-1.82241 c -6.1338,-5.48058 -4.4777,-18.46259 2.7036,-21.19292 6.57,-2.49794 14.8106,-0.37766 17.4101,4.4796 1.6677,3.11596 1.7321,11.35427 0.1125,14.38046 -1.6976,3.17211 -6.3364,5.16487 -12.0228,5.16487 -4.114,0 -5.613,-0.51749 -8.2034,-2.83201 z m 58.4148,0.85929 c -3.4655,-2.113 -4.7207,-5.21033 -4.6026,-11.35743 0.1436,-7.47259 4.5355,-11.66985 12.210999,-11.66985 9.0988,0 13.5021,4.77891 12.8243,13.91799 -0.3384,4.56105 -0.9032,5.86591 -3.5715,8.25 -2.6262,2.34656 -4.0668,2.83137 -8.4038,2.82827 -3.4379,-0.002 -6.3404,-0.67819 -8.457399,-1.96898 z m 27.833899,-0.76269 c -5.6972,-5.69728 -5.0626,-16.49391 1.1938,-20.30868 4.1866,-2.55277 11.206,-2.55176 15.3947,0.002 5.735,3.49685 6.7043,14.13613 1.8066,19.83005 -1.8918,2.19929 -3.2529,2.6646 -8.8339,3.01997 -6.2367,0.39713 -6.7595,0.25805 -9.5612,-2.54356 z m 28.1705,-0.78342 c -3.3819,-3.38185 -3.5021,-3.75112 -3.0872,-9.4863 0.4776,-6.60294 2.931,-10.30746 7.6029,-11.48004 2.5576,-0.64192 2.5306,-0.68872 -1.4207,-2.45775 -8.7935,-3.93697 -9.9338,-18.36946 -1.8689,-23.65379 l 2.6743,-1.75227 -2.5783,-1.35086 c -1.418,-0.74297 -3.2588,-2.66711 -4.0907,-4.27585 -1.9213,-3.7154 -1.9517,-12.27442 -0.057,-15.93912 2.7756,-5.36755 11.8763,-7.64449 18.8717,-4.72162 3.3735,1.40951 6.6723,5.41485 6.6723,8.10125 0,2.66044 1.5466,1.66714 2.5432,-1.6334 1.4856,-4.91968 5.5577,-7.33142 12.3788,-7.33142 9.8106,0 14.078,4.07819 14.078,13.45395 0,6.05997 -2.007,10.46188 -5.6371,12.36391 l -2.612,1.36856 3.0996,2.20708 c 5.054,3.59878 6.4598,13.20868 2.8311,19.35372 -0.6499,1.10056 -2.96,2.81376 -5.1337,3.80712 -3.8951,1.78008 -3.9145,1.81554 -1.3448,2.46049 1.434,0.35991 3.6624,1.77757 4.9521,3.15034 1.9634,2.08994 2.3448,3.55356 2.3448,8.99742 0,6.0791 -0.2121,6.69103 -3.2658,9.41944 -2.6737,2.38897 -4.1608,2.91797 -8.2029,2.91797 -9.1638,0 -13.0313,-3.70983 -13.0313,-12.5 0,-6.14654 2.1772,-10.07302 6.4402,-11.61454 l 3.4594,-1.25093 -3.8835,-1.73868 c -5.2924,-2.36949 -7.3719,-6.59119 -6.7775,-13.75922 0.4076,-4.91494 0.8875,-5.90659 4.2769,-8.83643 2.3821,-2.05922 3.2245,-3.3002 2.24,-3.3002 -2.0627,0 -6.7555,-5.61067 -6.7555,-8.07673 0,-3.01692 -1.4887,-2.25286 -2.5432,1.30525 -0.5525,1.86446 -2.3525,4.1613 -4.2601,5.43628 -3.213,2.14735 -3.2457,2.23861 -1.1965,3.3353 3.1597,1.69104 5.9919,7.01988 5.9961,11.28202 0.01,6.33466 -2.3712,10.53243 -7.2087,12.72796 -2.3582,1.0703 -3.4551,1.95588 -2.4376,1.96796 1.0175,0.0121 3.38,1.55196 5.25,3.42196 2.9695,2.9695 3.4,4.03979 3.4,8.45295 0,9.46787 -3.6521,13.14705 -13.0503,13.14705 -4.5573,0 -5.5545,-0.40481 -8.6685,-3.51883 z m 57.7154,0.66929 c -6.0508,-6.05086 -4.7906,-16.7551 2.4496,-20.80601 l 3.9461,-2.20788 -2.6991,-0.67744 c -1.4845,-0.37258 -3.8228,-2.01284 -5.1962,-3.645 -2.0026,-2.38 -2.497,-4.06034 -2.497,-8.48656 0,-9.2665 4.1425,-13.6003 13,-13.6003 8.9225,0 13,4.32125 13,13.77702 0,5.14414 -0.3292,6.02496 -3.4,9.09571 -1.87,1.87 -4.2325,3.4074 -5.25,3.41645 -1.1811,0.0105 -0.4037,0.83351 2.15,2.27617 7.2949,4.12114 8.575,14.78624 2.5034,20.85784 -2.5153,2.51532 -3.5713,2.84954 -9.0034,2.84954 -5.4321,0 -6.4881,-0.33422 -9.0034,-2.84954 z m 56,0 c -6.0716,-6.0716 -4.7915,-16.7367 2.5034,-20.85784 2.5537,-1.44266 3.3311,-2.26567 2.15,-2.27617 -1.0175,-0.009 -3.38,-1.54645 -5.25,-3.41645 -3.0707,-3.07075 -3.4,-3.95157 -3.4,-9.09571 0,-9.45577 4.0775,-13.77702 13,-13.77702 8.8575,0 13,4.3338 13,13.6003 0,4.42622 -0.4944,6.10656 -2.497,8.48656 -1.3734,1.63216 -3.7117,3.27242 -5.1962,3.645 l -2.6991,0.67744 3.9462,2.20788 c 7.2401,4.05091 8.5004,14.75515 2.4495,20.80601 -2.5153,2.51532 -3.5713,2.84954 -9.0034,2.84954 -5.4321,0 -6.4881,-0.33422 -9.0034,-2.84954 z m 28.7692,-0.0684 c -3.0536,-2.72841 -3.2658,-3.34034 -3.2658,-9.41944 0,-5.44386 0.3814,-6.90748 2.3448,-8.99742 1.2897,-1.37277 3.5181,-2.79043 4.9521,-3.15034 2.5697,-0.64495 2.5503,-0.68041 -1.3448,-2.46049 -2.1737,-0.99336 -4.4838,-2.70656 -5.1337,-3.80712 -3.6286,-6.14504 -2.2228,-15.75494 2.8312,-19.35372 l 3.0995,-2.20708 -2.612,-1.36856 c -3.6301,-1.90206 -5.6371,-6.30397 -5.6371,-12.36394 0,-9.37576 4.2674,-13.45395 14.0781,-13.45395 6.821,0 10.8931,2.41174 12.3787,7.33142 0.9966,3.30054 2.5432,4.29384 2.5432,1.6334 0,-2.6864 3.2988,-6.69174 6.6723,-8.10125 6.9954,-2.92287 16.0961,-0.64593 18.8717,4.72162 1.8951,3.6647 1.8647,12.22372 -0.056,15.93912 -0.832,1.60874 -2.6728,3.53288 -4.0908,4.27585 l -2.5782,1.35086 2.6743,1.75227 c 8.0649,5.28433 6.9245,19.71682 -1.869,23.65379 -3.9513,1.76903 -3.9783,1.81583 -1.4207,2.45775 4.6719,1.17258 7.1253,4.8771 7.6029,11.48004 0.4149,5.73518 0.2947,6.10445 -3.0872,9.4863 -3.0966,3.09658 -4.1251,3.51883 -8.5717,3.51883 -9.4679,0 -13.1471,-3.65212 -13.1471,-13.05034 0,-4.52314 0.4136,-5.56331 3.4,-8.54966 1.87,-1.87 4.2325,-3.40988 5.25,-3.42196 1.0175,-0.0121 -0.079,-0.89766 -2.4376,-1.96796 -4.8375,-2.19553 -7.2149,-6.3933 -7.2087,-12.72796 0,-4.26214 2.8364,-9.59098 5.9961,-11.28202 2.0492,-1.09669 2.0165,-1.18795 -1.1965,-3.3353 -1.9076,-1.27498 -3.7076,-3.57182 -4.2601,-5.43628 -1.0545,-3.55811 -2.5432,-4.32217 -2.5432,-1.30525 0,2.46606 -4.6928,8.07673 -6.7555,8.07673 -0.9844,0 -0.1421,1.24098 2.2401,3.3002 3.3893,2.92984 3.8692,3.92149 4.2768,8.83643 0.5944,7.16803 -1.4851,11.38973 -6.7775,13.75922 l -3.8835,1.73868 3.4594,1.25093 c 4.243,1.53428 6.4402,5.46387 6.4402,11.51783 0,8.85516 -3.8419,12.59671 -12.9346,12.59671 -4.1489,0 -5.6079,-0.51296 -8.2996,-2.91797 z m 59.5425,1.90837 c -7.3704,-2.96883 -8.0459,-17.74067 -1.0075,-22.03227 4.1887,-2.55398 11.2081,-2.55499 15.3947,-0.002 6.1898,3.77412 6.8916,14.61086 1.3079,20.19455 -2.4436,2.44354 -3.6085,2.84051 -8.1765,2.78615 -2.9298,-0.0349 -6.3132,-0.46065 -7.5186,-0.94621 z m 26.5537,-1.82241 c -6.1339,-5.48058 -4.4777,-18.46259 2.7036,-21.19292 6.57,-2.49794 14.81065,-0.37766 17.41015,4.4796 1.6677,3.11596 1.7321,11.35427 0.1125,14.38046 -1.6976,3.17211 -6.33645,5.16487 -12.02285,5.16487 -4.114,0 -5.613,-0.51749 -8.2034,-2.83201 z m 30.55825,1.68746 c -3.3401,-1.62077 -5.4202,-6.17212 -5.4202,-11.85977 0,-4.57551 0.4059,-5.60156 3.4,-8.59571 1.87,-1.87 4.2325,-3.40988 5.25,-3.42196 1.0175,-0.0121 -0.079,-0.89766 -2.4376,-1.96796 -3.0852,-1.40025 -4.6978,-2.92754 -5.75,-5.44592 -2.8007,-6.70281 -1.0068,-14.85092 3.9904,-18.12519 l 2.6198,-1.71658 -2.9725,-1.80769 c -4.0098,-2.43854 -5.3858,-5.34829 -5.3858,-11.38929 0,-9.14489 5.1065,-14.52541 13.7857,-14.52541 7.0567,0 11.6103,3.34979 13.5145,9.9416 0.6855,2.37307 0.7907,2.41352 1.4529,0.5584 1.6854,-4.72159 3.2076,-6.93293 5.9028,-8.57533 l 2.8701,-1.74903 -2.9055,-1.50251 c -3.9523,-2.04382 -5.8348,-5.97126 -5.8348,-12.17313 0,-6.20187 1.8825,-10.12931 5.8348,-12.17313 l 2.9055,-1.50251 -3.1803,-1.93407 c -7.8497,-4.77367 -7.9462,-18.21788 -0.1721,-23.96553 l 3.0718,-2.27107 -3.04,-1.84874 c -7.6375,-4.64462 -7.7059,-19.15107 -0.1109,-23.51001 l 2.8919,-1.65973 -3.7598,-3.57667 c -6.0904,-5.79361 -6.5678,-15.58549 -1.0299,-21.12335 5.1937,-5.19374 15.9702,-4.88388 21.12915,0.60753 1.7404,1.85252 2.4415,3.96691 2.7557,8.31064 0.5076,7.01758 -1.3778,11.36198 -5.95885,13.73093 l -3.1291,1.61814 3.1979,1.54883 c 4.15985,2.01466 6.09425,5.91714 6.09425,12.29479 0,6.08105 -2.1742,10.30418 -6.34475,12.32405 l -2.9474,1.42747 3.1291,1.61814 c 4.06245,2.10076 6.16665,6.3051 6.14835,12.28463 -0.018,5.84341 -1.5465,9.08732 -5.55465,11.78837 l -3.0401,2.04875 3.0261,1.98322 c 4.01995,2.6345 5.55155,5.93151 5.56485,11.97932 0.013,5.95268 -2.7133,11.06734 -6.70955,12.58668 l -2.7271,1.03684 3.3614,1.62796 c 2.12805,1.03064 3.98355,3.01756 5.05705,5.4152 l 1.6956,3.78725 1.4205,-3.15557 c 1.9987,-4.43984 5.9745,-7.00894 11.5961,-7.49337 9.8014,-0.84462 15.7924,5.37583 15.0339,15.60977 -0.3477,4.69177 -0.8813,5.85464 -3.9961,8.7092 l -3.5949,3.29445 3.5563,3.5563 c 3.464,3.46398 3.5456,3.72381 3.1455,10.00849 -0.4533,7.11905 -2.7803,10.78801 -7.6112,12.00048 -2.592,0.65055 -2.5872,0.66078 1.3448,2.86433 6.7461,3.78049 8.2768,14.24974 2.9833,20.40379 -1.9273,2.24056 -3.2579,2.69931 -8.8652,3.05635 -6.2368,0.39713 -6.7595,0.25805 -9.5612,-2.54356 -6.0321,-6.0321 -4.9699,-16.96599 2.0114,-20.70398 l 3.6221,-1.93938 -3.051,-1.56062 c -4.7271,-2.41791 -6.7993,-5.97255 -6.844,-11.73989 -0.045,-5.75531 2.184,-10.87909 5.1398,-11.81724 2.6803,-0.85068 2.5351,-1.88502 -0.4919,-3.50503 -1.3766,-0.73672 -3.256,-3.04647 -4.1765,-5.13276 l -1.6735,-3.79326 -1.745,3.89747 c -1.0138,2.26445 -3.014,4.55374 -4.77395,5.46378 -4.2749,2.21068 -11.9014,2.00196 -15.8986,-0.43512 -3.0218,-1.84241 -3.7982,-2.9823 -5.7885,-8.49856 -0.6295,-1.74459 -0.811,-1.60574 -1.4218,1.08729 -0.9408,4.14853 -1.7224,5.26155 -5.1647,7.35496 l -2.9272,1.78014 2.6198,1.71658 c 4.9972,3.27427 6.791,11.42238 3.9904,18.12519 -1.0522,2.51838 -2.6648,4.04567 -5.75,5.44592 -2.3582,1.0703 -3.4551,1.95588 -2.4376,1.96796 1.0175,0.0121 3.38,1.55196 5.25,3.42196 2.9695,2.9695 3.4,4.03979 3.4,8.45295 0,6.28228 -1.578,9.87746 -5.145,11.72205 -3.1407,1.62412 -11.3375,1.78338 -14.4348,0.28045 z m 27.8566,-0.82817 c -3.4655,-2.113 -4.7207,-5.21033 -4.6025,-11.35743 0.1435,-7.47262 4.5354,-11.66988 12.2109,-11.66988 9.0988,0 13.50215,4.77891 12.82435,13.91799 -0.3384,4.56105 -0.9032,5.86591 -3.57155,8.25 -2.6262,2.34656 -4.0668,2.83137 -8.4038,2.82827 -3.4379,-0.002 -6.3404,-0.67819 -8.4574,-1.96898 z M 242.54446,257.40166 c -8.5118,-3.43917 -9.5445,-19.3135 -1.604,-24.65669 l 3.2841,-2.20988 -2.9489,-1.74195 c -1.6219,-0.95808 -3.4785,-2.90444 -4.1259,-4.32525 l -1.177,-2.5833 -1.4336,2.736 c -0.7884,1.5048 -2.7498,3.41666 -4.3585,4.24857 -3.8007,1.96543 -12.3027,1.93709 -16.1527,-0.0538 -7.6901,-3.9767 -7.7216,-19.74306 -0.048,-24.14696 l 2.9064,-1.66806 -3.1149,-2.09494 c -1.7132,-1.15221 -3.8807,-3.65389 -4.8168,-5.55928 -0.9364,-1.90591 -1.7236,-2.71162 -1.75,-1.79107 -0.078,2.72425 -4.8448,7.60454 -8.6558,8.86228 -11.9693,3.95025 -22.3781,-6.45846 -18.4278,-18.42784 1.9033,-5.76721 6.1507,-8.60839 12.8623,-8.60397 7.0591,0.005 11.4917,2.46939 13.2662,7.37675 l 1.2725,3.51909 1.7387,-3.88347 c 1.0686,-2.38681 3.013,-4.54246 5.0453,-5.59338 2.9829,-1.54251 3.1129,-1.78303 1.3285,-2.45696 -1.0879,-0.41088 -3.103,-1.95752 -4.478,-3.43698 -2.1607,-2.32489 -2.5,-3.61797 -2.5,-9.52879 0,-5.91082 0.3393,-7.2039 2.5,-9.52879 1.375,-1.47946 3.3901,-3.0261 4.478,-3.43698 1.8036,-0.68116 1.7052,-0.88817 -1.1151,-2.34659 -6.0733,-3.14062 -8.3524,-13.91205 -4.3372,-20.49782 4.7626,-7.81162 18.1792,-8.17074 23.6696,-0.63355 l 2.042,2.80317 1.1952,-2.23323 c 0.6574,-1.22828 2.5705,-3.06963 4.2515,-4.0919 l 3.0564,-1.85867 -2.9962,-1.5494 c -3.1507,-1.6293 -6.2442,-7.63695 -6.2442,-12.12629 0,-4.28561 2.9313,-10.028221 6.0633,-11.878331 l 3.0049,-1.77503 -3.2841,-2.20988 c -4.0629,-2.73391 -6.1659,-8.45157 -5.29,-14.38201 0.6563,-4.44344 4.6769,-10.25475 7.0948,-10.25475 2.1044,0 1.7041,-1.77223 -0.5628,-2.49172 -8.092,-2.56831 -9.0282,-18.90587 -1.3783,-24.05319 l 3.1478,-2.11802 -3.3633,-2.68366 c -5.5127,-4.39866 -6.8478,-14.03726 -2.8001,-20.21482 3.8961,-5.9462402 15.7304,-6.7669202 21.6255,-1.49968 2.7805,2.48441 3.171,3.51125 3.4908,9.17921 0.416,7.37305 -1.8214,12.1987 -6.4765,13.96856 l -2.7271,1.03684 3.0289,1.46693 c 4.3045,2.08472 6.4269,6.23663 6.4225,12.56384 0,5.98269 -2.5364,11.24759 -5.9273,12.32381 -2.6476,0.84032 -2.6476,2.20347 0,3.0438 6.0128,1.90838 8.1912,15.63853 3.3871,21.34793 -1.3992,1.6628 -3.4388,3.3073 -4.5326,3.65444 -1.8051,0.57293 -1.687,0.83439 1.2794,2.83346 4.2735,2.87995 5.7676,6.02537 5.7676,12.142271 0,6.1169 -1.4941,9.26232 -5.7676,12.14226 -2.9664,1.99908 -3.0845,2.26054 -1.2794,2.83347 2.7736,0.88029 7.0721,6.24005 7.0985,8.851 0.016,1.54984 0.5653,0.97648 1.9162,-1.99877 2.2827,-5.02774 5.646,-7.41405 11.3564,-8.0577 8.9421,-1.0079 15.6941,4.83119 15.7017,13.57861 0.01,5.73481 -2.534,10.8607 -6.3591,12.83877 -2.8203,1.45842 -2.9187,1.66543 -1.1152,2.34659 1.0879,0.41088 3.103,1.95752 4.478,3.43698 2.1607,2.32489 2.5,3.61797 2.5,9.52879 0,5.91082 -0.3393,7.2039 -2.5,9.52879 -1.375,1.47946 -3.3901,3.0261 -4.478,3.43698 -1.7844,0.67393 -1.6543,0.91445 1.3286,2.45696 2.0322,1.05092 3.9766,3.20657 5.0452,5.59338 l 1.7387,3.88347 1.2726,-3.51909 c 1.7745,-4.90736 6.207,-7.3721 13.2662,-7.37675 6.7115,-0.004 10.9589,2.83676 12.8623,8.60397 3.9502,11.96938 -6.4585,22.37809 -18.4279,18.42784 -3.811,-1.25774 -8.5775,-6.13803 -8.6557,-8.86228 -0.026,-0.92055 -0.8137,-0.11484 -1.75,1.79107 -0.9361,1.90539 -3.1037,4.40707 -4.8169,5.55928 l -3.1148,2.09494 2.9064,1.66806 c 7.6733,4.4039 7.6418,20.17026 -0.048,24.14696 -3.8867,2.00987 -12.3638,2.01317 -16.2446,0.006 -1.8665,-0.96521 -3.6994,-3.15772 -4.8068,-5.75 l -1.7898,-4.18992 -0.7172,3.22297 c -0.7004,3.1479 -5.559,8.25443 -7.8968,8.2998 -0.6453,0.0125 0.1998,0.70043 1.8781,1.52869 4.2785,2.11157 6.4486,6.2853 6.4486,12.40249 0,6.22595 -2.033,10.49467 -5.9672,12.52912 -3.1551,1.63156 -11.2049,1.92666 -14.6446,0.53686 z m 27.4487,-52.74103 2.8929,-1.66034 -3.0965,-2.08677 c -1.8439,-1.24262 -3.7899,-3.896 -4.8105,-6.55928 -1.3579,-3.54335 -1.7252,-3.94742 -1.7683,-1.94502 -0.07,3.2576 -2.4743,6.64782 -6.4211,9.05445 -1.7233,1.05082 -2.6053,1.91227 -1.96,1.91432 2.317,0.007 7.1938,5.12135 7.8968,8.28077 l 0.7171,3.22297 1.8283,-4.28038 c 1.0475,-2.45229 3.0638,-4.98949 4.7213,-5.94072 z m -28.245,-0.081 2.6965,-1.41283 -2.968,-1.87924 c -1.6325,-1.03358 -3.5717,-3.00704 -4.3094,-4.38546 l -1.3413,-2.50622 -1.8325,3.01332 c -1.0079,1.65732 -2.9587,3.52644 -4.3352,4.1536 l -2.5026,1.14028 3.0207,1.83703 c 1.6615,1.01036 3.5374,2.97095 4.1689,4.35686 l 1.1481,2.51984 1.7792,-2.71218 c 0.9785,-1.49169 2.9926,-3.34794 4.4756,-4.125 z m 23.3929,-21.36998 c 0.01,-0.91964 1.8963,-3.28214 4.1953,-5.25 2.3049,-1.97288 3.5103,-3.57792 2.6871,-3.57792 -1.9303,0 -6.4359,-4.81829 -7.3607,-7.87138 -0.6761,-2.23236 -0.8264,-2.12982 -2.563,1.74895 -1.0364,2.31503 -2.9617,4.62926 -4.394,5.28189 -3.0888,1.40736 -3.2429,2.48566 -0.4804,3.36244 2.4025,0.76252 5.9149,6.06905 5.9426,8.9781 0.016,1.6579 0.1848,1.74343 0.9884,0.5 0.5332,-0.825 0.9763,-2.25243 0.9847,-3.17208 z m -24.1556,-10.02441 c -1.4858,-0.93307 -3.1952,-2.61909 -3.7987,-3.74672 -1.0577,-1.97627 -1.208,-1.92409 -4.1674,1.44649 -1.6886,1.9232 -3.7158,3.49672 -4.5048,3.49672 -0.7985,0 0.4668,1.88442 2.8536,4.25 l 4.2882,4.25 4.0153,-4 4.0153,-4 -2.7015,-1.69649 z m 26.684,-21.83097 c 1.0928,-1.21473 2.877,-2.54087 3.9649,-2.94699 1.7962,-0.67051 1.6886,-0.88806 -1.1709,-2.36677 -1.9168,-0.99119 -3.8359,-3.18536 -4.9045,-5.60736 l -1.7555,-3.97899 -1.7742,3.96273 c -0.976,2.17986 -2.9212,4.48534 -4.3235,5.1243 -3.2374,1.47504 -3.1937,1.96683 0.354,3.98497 1.6844,0.95819 3.45,3.19096 4.2309,5.35035 l 1.34,3.70592 1.0259,-2.50978 c 0.5643,-1.38038 1.92,-3.50365 3.0128,-4.71838 z m -24.645,-2.97254 c 0.6225,0 1.1319,-0.45 1.1319,-1 0,-0.55 -0.6422,-1 -1.4272,-1 -0.785,0 -2.7306,-1.58123 -4.3236,-3.51385 l -2.8964,-3.51385 -1.3911,2.59916 c -0.765,1.42954 -2.747,3.30039 -4.4043,4.15744 -2.8395,1.46831 -2.8933,1.60269 -0.9335,2.32767 1.1439,0.42316 3.1585,2.07184 4.4769,3.66373 l 2.397,2.89433 3.1192,-3.30731 c 1.7155,-1.81903 3.6285,-3.30732 4.2511,-3.30732 z" id="path3148" inkscape:connector-curvature="0"/>
  </g>
</svg>